<?xml version="1.0" encoding="UTF-8"?>
<svg version="1.1" xmlns="http://www.w3.org/2000/svg" width="1266" height="1009">
<path d="M0 0 C6.15760619 4.61820465 6.30645969 12.42280907 7.38671875 19.55224609 C11.26225603 46.78173263 12.32226782 74.12169617 12.13716483 101.58901739 C12.11605404 105.12903054 12.10832324 108.66907562 12.09944153 112.20913696 C12.08320715 118.22558217 12.06138594 124.24198005 12.03579712 130.25839233 C11.97033594 146.00291464 11.95573678 161.7475445 11.94921875 177.4921875 C11.94883157 178.26993617 11.9484444 179.04768484 11.94804549 179.84900165 C11.93609904 206.63507719 12.12858565 233.4089422 12.8125 260.1875 C12.83383373 261.02412045 12.85516747 261.86074089 12.87714767 262.72271347 C13.19014596 274.81725049 13.57370918 286.90896144 14 299 C14.02977936 299.84592461 14.05955872 300.69184921 14.09024048 301.5634079 C14.73481534 319.78740828 15.43061558 338.00989329 16.22727203 356.22793007 C16.31340426 358.204546 16.39695267 360.18127399 16.48040771 362.15800476 C16.75123429 368.15662009 17.1350456 374.05661336 18 380 C35.39541193 386.7662154 52.29778714 392.78303301 70.99609375 394.44921875 C71.88304932 394.53075195 72.77000488 394.61228516 73.68383789 394.69628906 C75.43321637 394.85308721 77.1837495 394.99765301 78.93530273 395.12792969 C84.21781936 395.58240728 88.40347207 396.26831653 93 399 C101.12595825 410.39011436 101.90530327 426.42814685 103 440 C103.08677002 441.04559082 103.08677002 441.04559082 103.17529297 442.11230469 C103.57002516 447.07164031 103.82343825 452.02839293 104 457 C104.03399902 457.89315918 104.06799805 458.78631836 104.10302734 459.70654297 C104.19907644 462.55437423 104.26083945 465.40104394 104.3125 468.25 C104.34230957 469.14372314 104.37211914 470.03744629 104.40283203 470.95825195 C104.41040527 471.80218506 104.41797852 472.64611816 104.42578125 473.515625 C104.44765503 474.63372559 104.44765503 474.63372559 104.4699707 475.77441406 C103.74761306 479.19519968 102.62051376 480.67504616 100 483 C96.96796405 483.7108717 94.01533921 483.62951361 90.9140625 483.55859375 C90.02069183 483.55626236 89.12732117 483.55393097 88.20687866 483.55152893 C86.31213869 483.5417871 84.41742807 483.51998985 82.52294922 483.48706055 C79.66979164 483.43826602 76.81837819 483.42561212 73.96484375 483.41992188 C64.90499692 483.36267236 56.20056443 482.90890772 47.24316406 481.44311523 C41.36144416 480.63949271 35.48825818 480.75253407 29.5625 480.8125 C28.16837785 480.81946532 26.77425328 480.82595915 25.38012695 480.83203125 C10.51728751 480.92149024 -4.34470969 481.27760422 -19.20288086 481.64379883 C-36.70989793 482.07024467 -54.1499966 482.31313118 -71.63842773 481.25537109 C-73.83081648 481.12390163 -76.02365157 481.00482054 -78.21679688 480.88671875 C-85.2462999 480.49129392 -92.26502161 479.97149668 -99.26171875 479.1796875 C-100.44080811 479.05062012 -101.61989746 478.92155273 -102.8347168 478.78857422 C-106.62632423 477.84396242 -108.36793897 476.89768722 -111 474 C-113.09275654 467.96660996 -113.55147655 461.79535416 -114.0703125 455.45703125 C-114.19924393 453.9506031 -114.19924393 453.9506031 -114.33078003 452.41374207 C-114.51046645 450.29018557 -114.68676311 448.16633984 -114.85986328 446.04223633 C-115.12058493 442.8662817 -115.3974204 439.69202899 -115.67578125 436.51757812 C-116.53316849 426.44637025 -117.21726618 416.36883188 -117.4296875 406.26171875 C-117.46450226 405.39779007 -117.49931702 404.53386139 -117.53518677 403.64375305 C-117.56918005 399.29182191 -117.44023878 397.5647105 -114.68066406 394.02490234 C-111.58485689 391.68641193 -108.50209381 390.21754456 -104.875 388.9375 C-104.18631836 388.68709961 -103.49763672 388.43669922 -102.78808594 388.17871094 C-91.37692177 384.20850241 -79.25100079 381.99548446 -67.25 380.78515625 C-64.80653884 380.15636132 -64.80653884 380.15636132 -63.25 377.80859375 C-60.42495322 371.46106676 -60.98540472 365.09644419 -61.3203125 358.31640625 C-61.36850128 357.2642543 -61.41669006 356.21210236 -61.46633911 355.12806702 C-62.00643977 343.91217633 -62.7941336 332.71439241 -63.61331177 321.51599121 C-64.06890272 315.28595092 -64.51303091 309.05509424 -64.95703125 302.82421875 C-65.04651535 301.57085724 -65.13599945 300.31749573 -65.22819519 299.02615356 C-66.07402737 287.10486564 -66.82522056 275.17840394 -67.5625 263.25 C-68.43512271 249.13859079 -69.46578746 235.05562183 -70.68676758 220.97045898 C-72.20820102 203.20179135 -73.04918579 185.39338607 -73.91015625 167.58251953 C-74.47623526 156.00654097 -75.12712623 144.44601723 -76.02734375 132.890625 C-76.10876114 131.82197205 -76.19017853 130.75331909 -76.27406311 129.65228271 C-76.3935154 128.18519867 -76.3935154 128.18519867 -76.51538086 126.68847656 C-76.58478378 125.82820862 -76.65418671 124.96794067 -76.72569275 124.081604 C-76.89219447 121.94350614 -76.89219447 121.94350614 -78 120 C-78.41507813 120.44988281 -78.83015625 120.89976562 -79.2578125 121.36328125 C-85.05688041 127.41711992 -91.47658905 132.41982834 -98.09716797 137.52050781 C-101.30545873 140.0150218 -104.46137666 142.57426772 -107.625 145.125 C-134.68116073 166.85106909 -134.68116073 166.85106909 -146.984375 165.58203125 C-149.46666414 164.86524621 -150.43819404 164.04634215 -152 162 C-152.93660767 159.02634169 -153.14781053 156.27298868 -153.20532227 153.16577148 C-153.2352401 151.72662636 -153.2352401 151.72662636 -153.26576233 150.25840759 C-153.29083107 148.70543724 -153.29083107 148.70543724 -153.31640625 147.12109375 C-153.3475779 145.4991787 -153.3475779 145.4991787 -153.37937927 143.84449768 C-153.42264488 141.54716904 -153.46368664 139.24979761 -153.50268555 136.95239258 C-153.56139116 133.50265877 -153.626721 130.05310432 -153.69335938 126.60351562 C-153.77799953 122.15617357 -153.84615123 117.70901792 -153.90234375 113.26123047 C-153.95388662 109.27771373 -154.05423558 105.30165484 -154.20703125 101.32080078 C-154.25405997 99.62142352 -154.30094484 97.92204226 -154.34765625 96.22265625 C-154.38895157 95.46850937 -154.43024689 94.71436249 -154.47279358 93.93736267 C-154.55195065 90.03309343 -154.07827643 87.61139705 -151.62182617 84.64306641 C-147.82243497 80.98719501 -147.82243497 80.98719501 -145.578125 79.48828125 C-142.43349381 77.31263525 -139.43188367 75.01012952 -136.44189453 72.62695312 C-135.26988582 71.69841733 -134.08908164 70.7808263 -132.89794922 69.87695312 C-129.95360178 67.63708145 -127.28599796 65.33740492 -124.7109375 62.67578125 C-122 60 -122 60 -120 60 C-120 59.34 -120 58.68 -120 58 C-118.56640625 56.58984375 -118.56640625 56.58984375 -116.5625 54.9375 C-112.41038212 51.42929345 -108.64192767 47.64549595 -104.8828125 43.72265625 C-103 42 -103 42 -101 42 C-100.67 41.01 -100.34 40.02 -100 39 C-99.34 39 -98.68 39 -98 39 C-98 38.34 -98 37.68 -98 37 C-96.49609375 35.51953125 -96.49609375 35.51953125 -94.4375 33.8125 C-90.89003826 30.81322507 -87.63477128 27.66004868 -84.4453125 24.28515625 C-83 23 -83 23 -81 23 C-80.505 21.515 -80.505 21.515 -80 20 C-79.34 20 -78.68 20 -78 20 C-77.505 18.515 -77.505 18.515 -77 17 C-76.34 17 -75.68 17 -75 17 C-75 16.34 -75 15.68 -75 15 C-70.96064785 10.65308296 -66.87823184 7.30627374 -61 6 C-60.23115479 5.82718506 -59.46230957 5.65437012 -58.67016602 5.47631836 C-55.89801089 4.98180664 -53.27879012 4.82517274 -50.46484375 4.75390625 C-48.87833008 4.70459961 -48.87833008 4.70459961 -47.25976562 4.65429688 C-45.07235035 4.59385683 -42.8848478 4.53648509 -40.69726562 4.48242188 C-32.1429198 4.20847606 -23.68562263 3.50609299 -15.5 0.875 C-10.42368379 -0.39407905 -5.1826891 -0.86256321 0 0 Z " fill="#000000" transform="translate(689,62)"/>
<path d="M0 0 C0.86367188 -0.04898437 1.72734375 -0.09796875 2.6171875 -0.1484375 C5.125 0.375 5.125 0.375 7.31640625 2.45703125 C12.43289431 10.71192667 13.33430445 22.00815858 14.75 31.5 C14.94142578 32.77339233 14.94142578 32.77339233 15.13671875 34.07250977 C15.68295767 37.83480299 16.13659706 41.54062558 16.40234375 45.3359375 C17.02700439 53.08857499 18.89696288 57.10222384 24.16918945 62.85546875 C41.77400374 82.14702868 46.36454498 116.91195052 45.5 141.98828125 C44.63419433 156.89366693 41.39963024 169.6376157 34.08251953 182.63525391 C32.6367345 185.2621443 31.3750108 187.96311749 30.125 190.6875 C29.733125 191.52925781 29.34125 192.37101563 28.9375 193.23828125 C27.9472866 195.46135471 27.9472866 195.46135471 28.125 198.375 C27.135 198.375 26.145 198.375 25.125 198.375 C24.795 200.355 24.465 202.335 24.125 204.375 C25.04539062 205.04144531 25.96578125 205.70789063 26.9140625 206.39453125 C38.94300738 215.13746575 50.77133703 223.97378706 61.671875 234.109375 C63.82058551 236.09385286 66.01380045 237.99095786 68.25 239.875 C82.00591918 251.98248259 82.00591918 251.98248259 83.109375 260.21484375 C83.15956499 267.15360993 80.90453587 271.37085117 76.125 276.375 C74.17594841 278.04069763 72.17239253 279.64427788 70.125 281.1875 C69.27796509 281.82643188 69.27796509 281.82643188 68.41381836 282.47827148 C56.06946351 291.7190006 43.14972784 300.58069531 29.67578125 308.109375 C26.62991961 310.59516636 25.28409111 313.55940045 24.54077148 317.37011719 C24.44352783 318.45969727 24.34628418 319.54927734 24.24609375 320.671875 C24.12943359 321.8784375 24.01277344 323.085 23.89257812 324.328125 C23.78365234 325.58109375 23.67472656 326.8340625 23.5625 328.125 C23.33696754 330.59941322 23.10660098 333.07339122 22.87109375 335.546875 C22.77497803 336.6409668 22.6788623 337.73505859 22.57983398 338.86230469 C22.23481116 341.52692539 21.76512937 343.87734406 21.10913086 346.46044922 C19.71073816 352.53560477 19.74818969 358.62713551 19.6328125 364.8359375 C19.56314821 367.53894929 19.49057444 370.24161891 19.41113281 372.94433594 C19.39085211 373.63991671 19.3705714 374.33549747 19.34967613 375.05215645 C19.13719217 381.83218875 18.715567 388.59373964 18.25604057 395.36112022 C15.35165542 438.30244615 14.92067351 480.96965698 15.65380859 524.00048828 C15.67114957 525.04756864 15.68849054 526.09464899 15.706357 527.17345905 C15.78824711 532.08825901 15.87698033 537.00265201 15.98374939 541.91697693 C16.1548869 550.51179932 16.16488275 559.06744672 15.75073242 567.65600586 C15.69983821 568.78632028 15.69983821 568.78632028 15.64791584 569.93946934 C14.91683759 582.80569471 11.70746562 596.97636086 2.5625 606.5 C-1.73499639 609.94780129 -5.66641252 610.1375614 -11.04296875 610.109375 C-14.90961052 609.10671479 -16.3895513 607.46913001 -18.875 604.375 C-29.0887452 582.89568761 -29.73630589 555.86104226 -32.60290527 532.57220459 C-32.8496572 530.57964684 -33.10269227 528.58786967 -33.35644531 526.59619141 C-35.50092423 509.64125369 -36.44242491 492.7265739 -37.17211914 475.66357422 C-37.73704473 462.5291849 -38.60147843 449.46246637 -39.875 436.375 C-46.28844318 458.41686232 -51.21742004 480.69388647 -55.75 503.1875 C-72.22196542 584.89127021 -72.22196542 584.89127021 -82.875 610.375 C-83.28363281 611.37273438 -83.69226563 612.37046875 -84.11328125 613.3984375 C-88.50066213 623.60231354 -94.15334981 633.28391919 -102.875 640.375 C-105.78586669 641.3452889 -107.77723685 641.53967847 -110.8125 641.5625 C-111.66714844 641.57667969 -112.52179688 641.59085938 -113.40234375 641.60546875 C-116.08211349 641.35569558 -117.63664889 640.85583054 -119.875 639.375 C-135.89649988 609.70555578 -120.1757251 552.68172768 -116.38842773 520.25927734 C-114.54935928 504.38682837 -113.08279789 488.53605369 -112.07951355 472.58825684 C-111.93549803 470.32552724 -111.78402437 468.06326617 -111.62715149 465.8013916 C-111.54619736 464.62443726 -111.46524323 463.44748291 -111.38183594 462.23486328 C-111.30761414 461.17582794 -111.23339233 460.1167926 -111.15692139 459.02566528 C-110.77022409 451.41557985 -110.44430627 444.75524159 -115.61279297 438.74047852 C-117.72567158 436.65675436 -119.94474973 434.73799444 -122.22900391 432.84521484 C-124.99886286 430.37115809 -127.15030165 427.45932631 -129.375 424.5 C-130.2773273 423.32450753 -131.18098416 422.15003451 -132.0859375 420.9765625 C-132.53936523 420.38649414 -132.99279297 419.79642578 -133.45996094 419.18847656 C-134.91856663 417.31916616 -136.40984067 415.48120047 -137.9140625 413.6484375 C-156.36479643 391.14192435 -162.72590504 373.66628448 -160.10595703 344.40673828 C-156.92671716 312.86292212 -149.13804842 281.13232418 -134.59716797 252.84741211 C-131.5502155 246.75203046 -130.06506397 243.05959566 -131.875 236.375 C-133.94915918 232.74522144 -136.47950404 230.92748583 -139.9375 228.75 C-152.00154841 220.99311598 -160.27959941 210.29503066 -163.875 196.375 C-170.45409388 162.68782992 -161.9312706 128.96589886 -145.7734375 99.546875 C-145.44335693 98.92844727 -145.11327637 98.31001953 -144.77319336 97.67285156 C-143.87476996 95.99153264 -142.95192451 94.32332778 -142.02734375 92.65625 C-139.46677059 85.36512642 -142.88704278 77.36819446 -145.03515625 70.26171875 C-145.67041587 68.10496315 -146.30516569 65.94805734 -146.93945312 63.79101562 C-147.93634797 60.42560653 -148.93773613 57.06171474 -149.94848633 53.70043945 C-150.92813051 50.4329633 -151.88901264 47.16040818 -152.84765625 43.88671875 C-153.15075211 42.89677414 -153.45384796 41.90682953 -153.76612854 40.8868866 C-155.61536966 34.51703184 -157.03021324 28.01159524 -155.875 21.375 C-154.27318638 19.33988306 -153.45477442 18.51470468 -150.9296875 17.90625 C-140.84490341 17.76166528 -133.34934033 24.20974431 -125.5625 30 C-124.74015869 30.60739014 -123.91781738 31.21478027 -123.07055664 31.84057617 C-117.04467702 36.35305043 -111.45312974 41.1505696 -106.02734375 46.36328125 C-104.04191356 48.40988812 -104.04191356 48.40988812 -101.875 49.375 C-101.7925 48.653125 -101.71 47.93125 -101.625 47.1875 C-100.68236272 43.65261022 -99.47018819 41.95740402 -96.875 39.375 C-91.44055088 38.19014447 -85.37026445 38.00713781 -80.40234375 40.73046875 C-78.5 42.375 -78.5 42.375 -75.875 45.375 C-75.32328125 44.8903125 -74.7715625 44.405625 -74.203125 43.90625 C-70.08365153 41.19679765 -65.62265875 41.64055555 -60.875 42.375 C-58.52451816 43.4811091 -56.59317719 44.70859367 -54.53125 46.28125 C-52.78856862 47.65053077 -52.78856862 47.65053077 -49.875 47.375 C-49.2871875 47.05144531 -48.699375 46.72789062 -48.09375 46.39453125 C-45.11384404 45.02524347 -42.64279226 45.0737424 -39.375 45.0625 C-38.2509375 45.04574219 -37.126875 45.02898437 -35.96875 45.01171875 C-32.63981203 45.40261677 -31.29585524 46.12621535 -28.875 48.375 C-25.74914235 42.35508987 -23.1720197 36.24461406 -20.6875 29.9375 C-17.75543571 22.6317063 -14.62200664 15.52178829 -10.9375 8.5625 C-10.37156128 7.48754272 -10.37156128 7.48754272 -9.79418945 6.39086914 C-7.02235999 1.28739366 -5.72553938 0.2208665 0 0 Z M-2.875 30.375 C-3.33555786 31.58446289 -3.33555786 31.58446289 -3.80541992 32.81835938 C-4.96359818 35.8476752 -6.1293383 38.87394507 -7.30004883 41.8984375 C-7.80238206 43.20067567 -8.30180547 44.5040406 -8.7980957 45.80859375 C-16.10060976 64.98780488 -16.10060976 64.98780488 -20.875 67.375 C-26.4618422 68.02355548 -31.27410071 68.36908382 -35.875 64.8125 C-36.865 64.008125 -37.855 63.20375 -38.875 62.375 C-41.84901811 63.08460233 -41.84901811 63.08460233 -43.20703125 64.90234375 C-46.24994641 67.58894566 -49.89991207 66.94957633 -53.77734375 66.87890625 C-58.54640886 66.10310625 -61.50080858 63.70949505 -64.875 60.375 C-65.535 62.025 -66.195 63.675 -66.875 65.375 C-69.12493359 65.40207139 -71.37496095 65.42142829 -73.625 65.4375 C-74.87796875 65.44910156 -76.1309375 65.46070313 -77.421875 65.47265625 C-82.36517182 65.33285713 -82.36517182 65.33285713 -84.875 64.375 C-86 62.4375 -86 62.4375 -86.875 60.375 C-87.865 59.385 -87.865 59.385 -88.875 58.375 C-90.29726115 61.2195223 -90.25261737 64.03912224 -90.49609375 67.18359375 C-90.875 69.375 -90.875 69.375 -92.875 72.375 C-98.39114432 73.36592413 -103.36309766 73.2878467 -108.1875 70.375 C-109.53125 68.984375 -109.53125 68.984375 -110.875 67.375 C-111.4009375 66.78203125 -111.926875 66.1890625 -112.46875 65.578125 C-113.64315262 64.24357657 -114.80813695 62.90069621 -115.96484375 61.55078125 C-121.9836751 54.6949754 -128.53052361 48.77483961 -135.875 43.375 C-137.20218983 47.35656948 -135.9191762 49.86465051 -134.56640625 53.6484375 C-134.06124273 55.1286995 -133.55670672 56.60917577 -133.05273438 58.08984375 C-132.25298191 60.40705651 -131.44747335 62.72181904 -130.62963867 65.03271484 C-123.11726201 86.37348904 -123.11726201 86.37348904 -126.95874023 96.12646484 C-128.44144911 98.99054108 -130.13604754 101.65809539 -131.875 104.375 C-146.76736954 128.76574521 -159.43246705 154.79054354 -152.9609375 184.19921875 C-150.98358295 191.59605161 -147.97919061 197.64334388 -142.875 203.375 C-142.27816406 204.18324219 -141.68132812 204.99148438 -141.06640625 205.82421875 C-136.94767866 211.368341 -132.8324554 214.96191188 -127.078125 218.73046875 C-121.97315934 222.54109028 -120.11554524 228.27565257 -118.875 234.375 C-117.55126545 244.34713362 -121.68420352 252.50221929 -125.671875 261.375 C-138.17261702 289.54143018 -146.74028926 321.59693173 -148.875 352.375 C-148.96467041 353.37611816 -148.96467041 353.37611816 -149.05615234 354.39746094 C-150.25447959 368.58270164 -145.74010424 378.32003418 -136.73046875 389.19921875 C-136.11816406 389.91722656 -135.50585938 390.63523437 -134.875 391.375 C-133.51929969 393.04041941 -132.16525415 394.70718666 -130.8125 396.375 C-129.63909588 397.80129294 -128.46560918 399.22751846 -127.29101562 400.65283203 C-125.63243131 402.67001371 -123.98036885 404.69246575 -122.328125 406.71484375 C-121.07301409 408.24747562 -119.81780574 409.7800277 -118.5625 411.3125 C-117.9636499 412.04662109 -117.3647998 412.78074219 -116.74780273 413.53710938 C-113.92450808 416.97699474 -111.11463934 420.31134107 -107.875 423.375 C-109.51871358 413.97636469 -112.24045049 404.94226003 -114.953125 395.80664062 C-118.51303947 383.61924688 -120.3108877 372.06064727 -120.875 359.375 C-120.91753906 358.49585938 -120.96007812 357.61671875 -121.00390625 356.7109375 C-121.34514853 342.37876193 -119.20068711 328.01676353 -116.4375 314 C-116.23229736 312.9486084 -116.02709473 311.8972168 -115.81567383 310.81396484 C-114.6867464 305.34372205 -113.44246522 300.35329464 -110.875 295.375 C-108.75 294.0625 -108.75 294.0625 -106.875 293.375 C-106.545 292.715 -106.215 292.055 -105.875 291.375 C-101.3351227 291.00690184 -101.3351227 291.00690184 -99.3125 292.625 C-98.838125 293.2025 -98.36375 293.78 -97.875 294.375 C-97.21910889 294.95145264 -96.56321777 295.52790527 -95.88745117 296.12182617 C-89.5228368 303.24775436 -89.90493096 317.40377738 -89.0625 326.5625 C-88.99707001 327.26354858 -88.93164001 327.96459717 -88.86422729 328.68688965 C-86.81911427 351.55494248 -85.69785676 381.94429616 -95.54296875 403.1328125 C-96.91308911 406.46770957 -97.13904859 407.66633439 -96.25 411.0625 C-96.04375 411.92359375 -95.8375 412.7846875 -95.625 413.671875 C-95.12883064 415.46015207 -94.60827444 417.24185805 -94.0625 419.015625 C-91.72051788 427.07744807 -88.93424531 441.49349062 -92.875 449.375 C-95.9375 450 -95.9375 450 -98.875 450.375 C-101.99557807 469.2489786 -103.6690029 488.12624887 -105.05349731 507.19412231 C-106.49626458 527.05110368 -108.26313781 546.86235446 -110.21264648 566.67578125 C-113.72132746 595.55515247 -113.72132746 595.55515247 -111.875 624.375 C-111.215 625.035 -110.555 625.695 -109.875 626.375 C-83.85005229 594.16379423 -78.94417052 544.11952729 -70.81640625 504.63671875 C-70.55610626 503.37237503 -70.29580627 502.10803131 -70.02761841 500.80537415 C-68.75592304 494.61459096 -67.49456381 488.42192818 -66.24902344 482.22583008 C-63.82164509 470.2224687 -61.23060087 458.27230746 -58.32421875 446.375 C-58.05478958 445.24819824 -57.78536041 444.12139648 -57.50776672 442.96044922 C-51.3333122 418.24281056 -51.3333122 418.24281056 -41.875 412.375 C-39.21875 411.90625 -39.21875 411.90625 -36.375 411.875 C-34.96734375 411.82859375 -34.96734375 411.82859375 -33.53125 411.78125 C-30.875 412.375 -30.875 412.375 -28.62890625 414.296875 C-26.21637165 418.5309001 -25.80247517 422.31890232 -25.3125 427.125 C-25.19302002 428.18952393 -25.07354004 429.25404785 -24.95043945 430.35083008 C-23.86021951 440.86483974 -23.32226432 451.4073775 -22.73544312 461.95864868 C-20.82979413 496.15978536 -17.41645981 530.26349268 -12.1875 564.125 C-11.99752441 565.36000244 -11.80754883 566.59500488 -11.61181641 567.86743164 C-10.51758806 574.55612857 -9.02245743 580.94448204 -6.875 587.375 C-4.21243971 584.71243971 -3.82352564 582.30489592 -2.8125 578.6875 C-2.47089844 577.48738281 -2.12929688 576.28726563 -1.77734375 575.05078125 C0.05132081 567.60154596 0.275224 560.56416715 0.28271484 552.921875 C0.28779556 551.78334579 0.29287628 550.64481659 0.29811096 549.4717865 C0.30880442 546.99473841 0.31742861 544.51768073 0.32423019 542.0406189 C0.33616494 538.04893081 0.35541968 534.05731604 0.37734985 530.06567383 C0.43855359 518.71162829 0.49198694 507.35757841 0.52636719 496.00341797 C0.6232369 465.04347635 1.03497156 434.14597193 2.54296875 403.21875 C2.60537624 401.92983856 2.66778374 400.64092712 2.73208237 399.31295776 C7.26481562 307.56205527 7.26481562 307.56205527 19.125 294.375 C21.26526324 293.01649664 23.45620229 291.84154393 25.70629883 290.67431641 C29.64788553 288.5569121 33.23568079 285.96793267 36.875 283.375 C37.60332031 282.86710938 38.33164062 282.35921875 39.08203125 281.8359375 C43.1518667 278.95529172 46.61686633 275.93365079 50.125 272.375 C53.14417821 269.92795911 56.26781218 267.61470428 59.39257812 265.3046875 C61.02355286 264.06204008 62.58124952 262.72447606 64.125 261.375 C64.125 260.385 64.125 259.395 64.125 258.375 C63.135 258.045 62.145 257.715 61.125 257.375 C60.43734325 256.05236989 59.77294837 254.71752938 59.125 253.375 C57.53051066 251.71730687 57.53051066 251.71730687 55.625 250.1875 C52.43973038 247.49669462 49.32669131 244.75213874 46.25 241.9375 C41.36533429 237.5360965 36.311054 233.41450326 31.125 229.375 C30.17238281 228.62734375 29.21976563 227.8796875 28.23828125 227.109375 C25.51108161 224.98783952 22.76646175 222.89399074 20.00878906 220.8125 C18.69524198 219.81014578 17.39051856 218.79616792 16.09277344 217.7734375 C6.50517506 210.21930594 -2.35285611 204.87450124 -13.9609375 201.078125 C-20.36180316 198.96269477 -26.39762928 196.04586779 -32.46630859 193.12988281 C-33.26117676 192.75702148 -34.05604492 192.38416016 -34.875 192 C-35.57625 191.66226563 -36.2775 191.32453125 -37 190.9765625 C-39.06550209 190.11020711 -39.06550209 190.11020711 -41.875 191.375 C-37.38458043 196.06499378 -32.82987864 200.51078271 -27.75 204.5625 C-23.13381245 208.25158712 -18.84181008 212.17697461 -14.5625 216.25 C-8.72634099 221.78398225 -2.66654083 226.8220473 3.70703125 231.71875 C12.52215426 238.50697383 20.86692892 245.92779895 29.125 253.375 C22.84559447 264.72547119 10.92827832 270.95468943 0.125 277.375 C0.125 276.715 0.125 276.055 0.125 275.375 C-1.195 275.045 -2.515 274.715 -3.875 274.375 C-3.76041307 272.93663249 -3.63290884 271.49929034 -3.5 270.0625 C-3.43039062 269.26199219 -3.36078125 268.46148438 -3.2890625 267.63671875 C-2.875 265.375 -2.875 265.375 -0.875 262.375 C-0.37793892 256.35724717 0.1057362 249.1013713 -3.56640625 244.046875 C-5.91008905 242.25242735 -8.29835243 240.81365994 -10.875 239.375 C-18.03842627 234.52624898 -24.41365539 229.17605056 -30.66918945 223.23291016 C-34.24037918 219.85071123 -37.88806571 216.67924443 -41.75 213.625 C-46.70857959 209.63768857 -50.93160038 205.36687999 -54.875 200.375 C-55.33003906 199.82585937 -55.78507812 199.27671875 -56.25390625 198.7109375 C-59.57787829 194.00873316 -59.35360257 188.96365181 -59.40625 183.36328125 C-58.76665047 179.76553389 -57.69364182 178.62044787 -54.875 176.375 C-47.81094722 172.84297361 -34.43348135 174.75308056 -27.1875 177.125 C-23.29911097 178.65662619 -19.54664429 180.41728465 -15.859375 182.3828125 C-13.62043413 183.50228294 -11.34287508 184.36960284 -9 185.25 C-4.28115993 187.06606055 -0.21062821 189.51205546 3.99609375 192.30078125 C5.04990234 192.83251953 5.04990234 192.83251953 6.125 193.375 C9.23607557 192.69628587 9.23607557 192.69628587 10.39599609 190.29296875 C11.01595459 188.94138672 11.01595459 188.94138672 11.6484375 187.5625 C12.1125 186.56863281 12.5765625 185.57476562 13.0546875 184.55078125 C13.53164063 183.50277344 14.00859375 182.45476562 14.5 181.375 C15.44250765 179.332037 16.38778959 177.29035145 17.3359375 175.25 C17.79806641 174.25468262 18.26019531 173.25936523 18.73632812 172.23388672 C20.02003043 169.59110297 21.40220038 167.05336129 22.8671875 164.5078125 C24.77546725 161.14845291 26.02671869 158.04657613 26.875 154.25 C27.10316406 153.23035156 27.33132813 152.21070313 27.56640625 151.16015625 C32.27829052 127.66663537 25.85063331 98.67859774 13.9296875 78.015625 C11.79087488 74.88610697 9.47199068 72.31279288 6.60546875 69.83984375 C3.0708976 66.34257678 2.69683617 62.35673358 2.125 57.5625 C2.04378906 56.91176514 1.96257812 56.26103027 1.87890625 55.59057617 C1.53334965 52.81981032 1.20498603 50.04707015 0.875 47.27441406 C0.6309345 45.24466621 0.37817049 43.21612899 0.125 41.1875 C-0.0915625 39.37185547 -0.0915625 39.37185547 -0.3125 37.51953125 C-0.81377009 34.71729221 -1.43179778 32.79837706 -2.875 30.375 Z M-105.875 326.375 C-109.57517365 347.67302331 -110.11565932 366.48235794 -103.875 387.375 C-96.20885132 375.87577698 -98.44002849 356.36334073 -100.875 343.375 C-102.03187669 337.66172213 -103.38848971 332.01075019 -104.875 326.375 C-105.205 326.375 -105.535 326.375 -105.875 326.375 Z " fill="#000000" transform="translate(372.875,314.625)"/>
<path d="M0 0 C8.81823145 3.49054995 12.75219852 19.20392851 16.36083984 27.46679688 C17 29.1875 17 29.1875 17 31.1875 C17.66 31.1875 18.32 31.1875 19 31.1875 C19.226875 30.630625 19.45375 30.07375 19.6875 29.5 C21.36151077 26.55055245 23.54956349 24.5122731 26 22.1875 C26.495 21.6925 26.495 21.6925 27 21.1875 C30.3469279 20.40655016 33.56410893 20.03253757 37 20.1875 C41.93128397 23.440049 43.25759428 27.77687172 45 33.1875 C45.55816406 32.713125 46.11632812 32.23875 46.69140625 31.75 C50.47750769 29.18749479 54.48970188 28.78479481 59 29.1875 C61.9375 31.625 61.9375 31.625 64 34.1875 C64.99 34.1875 65.98 34.1875 67 34.1875 C67.33 33.8575 67.66 33.5275 68 33.1875 C72.16803126 32.25744344 75.77450222 31.72453417 79.8125 33.25 C82.45574324 35.5911583 84.088278 38.23374923 86 41.1875 C86.25056152 40.6706665 86.50112305 40.15383301 86.75927734 39.62133789 C91.3807191 30.13009118 96.09653208 20.70844924 101.375 11.5625 C101.77895996 10.84715088 102.18291992 10.13180176 102.59912109 9.39477539 C106.21053432 3.25537291 106.21053432 3.25537291 110 2.1875 C113.05388682 1.73232796 115.94452633 1.73526671 119 2.1875 C121.96864559 4.41398419 121.99334254 6.14500922 122.56689453 9.80566406 C123.07177247 14.1594199 123.03639132 18.42210677 122.9296875 22.796875 C122.7114045 41.33146728 122.63946025 55.71794669 133.74707031 71.33398438 C141.14326953 82.27551681 140.66550758 98.5091053 138.50634766 111.05615234 C136.1822852 121.80841894 132.81401604 131.44014211 126 140.1875 C124.87078125 141.73244141 124.87078125 141.73244141 123.71875 143.30859375 C119.58778304 148.90169577 115.20912335 154.13234783 110.4375 159.1875 C102.31438487 167.88414511 96.1998508 177.26647472 91 187.9375 C90.42064697 189.10744507 90.42064697 189.10744507 89.82958984 190.30102539 C86.04563301 198.39177887 85.05243195 204.10665455 87.984375 212.69921875 C88.88749293 215.0982908 89.80993508 217.49016318 90.75 219.875 C96.38251656 234.40975671 99.2689045 248.16945261 100.625 263.6875 C100.74617188 264.98558594 100.86734375 266.28367187 100.9921875 267.62109375 C102.14412667 280.15469273 103.18216517 292.65816011 103.25 305.25 C103.2809375 306.73790039 103.2809375 306.73790039 103.3125 308.25585938 C103.3601142 317.10614916 103.3601142 317.10614916 100 321.1875 C98.06018324 323.12731676 94.91848938 322.91979252 92.296875 323.1953125 C88.71046545 323.18311383 86.47590828 321.66340828 84 319.1875 C84.03552979 320.34983154 84.07105957 321.51216309 84.10766602 322.7097168 C86.14600331 390.73175461 86.14600331 390.73175461 78 407.1875 C72.66090385 412.25964134 68.05645342 412.5373361 60.94921875 412.46875 C55.82865744 411.98043157 53.26240156 409.60951555 49.9609375 405.890625 C47.92389032 403.08258387 47.05426364 400.94822379 46.125 397.625 C45.63386719 395.91570312 45.63386719 395.91570312 45.1328125 394.171875 C44.95524414 393.54087891 44.77767578 392.90988281 44.59472656 392.25976562 C43.9411041 389.9822831 43.25117924 387.71785824 42.5546875 385.453125 C40.15288289 377.63166884 37.80266741 369.79626739 35.75 361.875 C35.45609375 360.74449219 35.1621875 359.61398437 34.859375 358.44921875 C31.62511325 343.5906069 31.05721317 328.1844651 29.9375 313.0625 C29.67802019 309.57674891 29.41724578 306.09111577 29.15272522 302.60574341 C28.98939551 300.45238712 28.82896993 298.29880801 28.67185974 296.14498901 C28.59830765 295.17272369 28.52475555 294.20045837 28.44897461 293.19873047 C28.35476479 291.92423538 28.35476479 291.92423538 28.25865173 290.62399292 C27.99079027 288.10074457 27.53503789 285.66667554 27 283.1875 C22.53515175 297.12188278 18.11268879 311.04924483 14.5625 325.25 C14.32837402 326.18005859 14.09424805 327.11011719 13.85302734 328.06835938 C10.14287863 343.30324309 9.03296358 358.61626859 7.90087891 374.21264648 C5.43770218 407.77008995 5.43770218 407.77008995 -6.3125 418.25 C-10.28856601 419.63699977 -13.8467581 419.95914057 -18 419.1875 C-24.36151456 414.94649029 -26.24579712 407.54998786 -27.84375 400.42578125 C-31.87098308 379.80763969 -32.40337574 359.20681383 -32.375 338.25 C-32.37511229 336.86771647 -32.37523443 335.48543294 -32.37536621 334.10314941 C-32.35590504 306.65564974 -31.58860965 278.76928019 -24 252.1875 C-23.64736084 250.93598145 -23.64736084 250.93598145 -23.28759766 249.65917969 C-19.00666918 234.62013915 -19.00666918 234.62013915 -16.25390625 227.8515625 C-15.02092756 224.24865281 -14.80155512 223.53417474 -16 220.1875 C-17.50720327 218.42959387 -17.50720327 218.42959387 -19.4375 216.75 C-33.41700688 203.19186123 -43.31175061 185.38046017 -53.375 168.875 C-53.83825684 168.12468506 -54.30151367 167.37437012 -54.77880859 166.60131836 C-62.48820982 153.78392349 -67.7226208 140.04830127 -72.6875 126 C-73.24741673 124.43532124 -73.80796191 122.87086722 -74.36914062 121.30664062 C-84.47754481 93.05675945 -84.47754481 93.05675945 -84 83.1875 C-81.77905539 79.85608309 -81.37686672 79.68728074 -77.6875 78.875 C-73.73611345 78.15026403 -71.43640309 77.83627684 -68 80.1875 C-62.34299791 85.77401263 -58.59740614 92.03422782 -54.875 99 C-45.42999327 116.639053 -45.42999327 116.639053 -33 132.1875 C-33.2475 130.3003125 -33.2475 130.3003125 -33.5 128.375 C-35.48410776 109.58433239 -30.93834802 92.05640587 -23.125 75.0390625 C-18.52043984 64.91141284 -16.83584026 55.88602609 -16.16943359 44.80517578 C-15.87908622 40.3194343 -15.4343803 35.84871111 -15 31.375 C-14.91637207 30.50133789 -14.83274414 29.62767578 -14.74658203 28.72753906 C-14.22916867 23.37589136 -13.69997011 18.02631216 -13.0625 12.6875 C-12.92972656 11.5428125 -12.79695312 10.398125 -12.66015625 9.21875 C-11.95158824 5.96520696 -10.99213369 3.84690177 -9 1.1875 C-5.92960231 0.23226516 -3.19585693 0.19974106 0 0 Z M0 31.1875 C-1.92213717 33.10963717 -1.42797978 36.58971396 -1.61328125 39.15234375 C-1.72783921 40.60747529 -1.8430975 42.06255182 -1.95898438 43.51757812 C-2.13705182 45.80760826 -2.31057706 48.09760922 -2.47143555 50.38891602 C-3.10088697 59.22533443 -3.94433384 67.15983707 -8 75.1875 C-8.32766357 75.8786792 -8.65532715 76.5698584 -8.99291992 77.28198242 C-9.63307386 78.62452078 -10.28301206 79.9624441 -10.94335938 81.29516602 C-21.11656918 101.93888718 -23.99146163 120.90388202 -18.9375 143.6875 C-18.75848145 144.52885498 -18.57946289 145.37020996 -18.39501953 146.23706055 C-16.7590184 152.64462388 -13.63115424 156.56453804 -9 161.1875 C-8.50910889 161.69087891 -8.01821777 162.19425781 -7.51245117 162.71289062 C-6.21770938 164.03881125 -4.92138846 165.36318932 -3.625 166.6875 C1.63491493 172.47661369 1.63491493 172.47661369 2.375 176.5625 C2 180.1875 2 180.1875 0.625 183.25 C-2.26545987 185.38343466 -2.8835779 185.48445621 -6.3125 185.25 C-19.00680209 182.93442698 -27.05229187 171.50934458 -35 162.1875 C-36.31067243 160.68590284 -37.62313997 159.18587043 -38.9375 157.6875 C-39.95833333 156.52083333 -40.97916667 155.35416667 -42 154.1875 C-42.495 155.1775 -42.495 155.1775 -43 156.1875 C-42.00487456 158.50824536 -42.00487456 158.50824536 -40.44921875 161.12109375 C-39.5679834 162.66385986 -39.5679834 162.66385986 -38.66894531 164.23779297 C-38.01506836 165.35557129 -37.36119141 166.47334961 -36.6875 167.625 C-36.35520386 168.19607483 -36.02290771 168.76714966 -35.68054199 169.35552979 C-20.48402711 195.86495688 -20.48402711 195.86495688 -0.87109375 219.0234375 C1.35067083 221.59307753 1.68568548 222.82602327 2 226.1875 C1.24316406 229.25512695 1.24316406 229.25512695 0.015625 232.67578125 C-0.20063538 233.29664108 -0.41689575 233.91750092 -0.63970947 234.55717468 C-1.33167994 236.54237783 -2.0388478 238.52159393 -2.75 240.5 C-8.51096086 256.53251976 -11.2711109 272.3474217 -13.125 289.25 C-13.25340271 290.40213486 -13.25340271 290.40213486 -13.38439941 291.57754517 C-15.13089544 307.44930751 -15.78491471 323.22174351 -16 339.1875 C-16.03867651 340.78389596 -16.07879134 342.38025851 -16.12109375 343.9765625 C-16.4191002 358.61160741 -15.54282345 373.77018336 -13 388.1875 C-12.67 388.1875 -12.34 388.1875 -12 388.1875 C-11.27840923 381.61809364 -10.88090526 375.06223249 -10.640625 368.4609375 C-9.28149945 332.30963051 -5.59781855 286.46400776 18.9375 258.0703125 C22.61817918 254.71029855 26.16628411 253.90722973 31.0625 253.9375 C32.31740234 253.92976563 32.31740234 253.92976563 33.59765625 253.921875 C36.25350676 254.21553002 37.78292984 254.7000985 40 256.1875 C50.37018835 269.87732372 49.72583428 294.45123764 50.7109375 310.97265625 C50.76649307 311.8940036 50.82204865 312.81535095 50.87928772 313.76461792 C51.10406997 317.54095154 51.32537489 321.31728801 51.52636719 325.0949707 C52.19913443 337.54223589 53.63791253 349.17167019 57 361.1875 C57.24556641 362.08090088 57.49113281 362.97430176 57.74414062 363.89477539 C58.30542389 365.83919016 58.92941569 367.76526382 59.5625 369.6875 C59.95566406 370.9146875 60.34882812 372.141875 60.75390625 373.40625 C61.16511719 374.3240625 61.57632813 375.241875 62 376.1875 C62.99 376.5175 63.98 376.8475 65 377.1875 C71.00867582 354.75511026 68.30267864 329.17265639 66.45581055 306.33422852 C66.18689838 302.99252387 65.93531519 299.64982494 65.68554688 296.30664062 C64.84136465 285.3638713 63.79810871 274.52219809 61.983078 263.69319153 C60.16564052 252.73246602 60.80043794 241.94574483 61.875 230.9375 C61.99234497 229.72114868 61.99234497 229.72114868 62.11206055 228.48022461 C62.19625244 227.71846924 62.28044434 226.95671387 62.3671875 226.171875 C62.44050293 225.49866211 62.51381836 224.82544922 62.58935547 224.13183594 C63.05766441 221.91446828 63.91384669 220.16764528 65 218.1875 C70.11094137 227.75893298 73.98220206 237.23698583 77.25 247.5625 C77.88158047 249.52272785 78.51630751 251.48191553 79.15148926 253.440979 C79.74540165 255.27353694 80.33661581 257.10696866 80.92773438 258.94042969 C82.18108126 262.73585628 83.54832249 266.46404145 85 270.1875 C85.33 270.1875 85.66 270.1875 86 270.1875 C86.82646983 255.03555316 84.93319254 237.02966797 78.04296875 223.27734375 C73.79118509 214.75785215 69.69426424 203.47595572 72.67626953 194.04980469 C78.79551072 178.40092789 88.32619015 163.11600227 99 150.1875 C112.22276917 133.92999692 122.86309265 113.47607671 122.375 92 C121.3435856 84.26439199 117.3229731 77.61517676 113.3125 71.0625 C107.53535128 61.37543718 107.55885845 51.21760105 107 40.1875 C103.61123354 44.3152498 101.41479942 49.03237322 99.04882812 53.78710938 C97.16897516 57.43453122 95.67461658 60.22444437 92 62.1875 C88.65069932 63.14599906 85.47460711 63.47044846 82 63.1875 C79.1875 61.0625 79.1875 61.0625 77 58.1875 C76.071875 57.259375 75.14375 56.33125 74.1875 55.375 C73.1046875 54.2921875 73.1046875 54.2921875 72 53.1875 C71.47921875 53.66832031 70.9584375 54.14914062 70.421875 54.64453125 C67.29094187 56.63923865 64.93631779 56.69068411 61.25 56.875 C59.49429688 56.97361328 59.49429688 56.97361328 57.703125 57.07421875 C56.36507812 57.13029297 56.36507812 57.13029297 55 57.1875 C54.01 54.7125 54.01 54.7125 53 52.1875 C52.21625 52.5175 51.4325 52.8475 50.625 53.1875 C46.10789113 54.433599 41.65568406 54.93272998 37 54.1875 C34.34042462 52.21426665 33.37472729 50.08551738 32.3125 47 C32.06113281 46.28457031 31.80976562 45.56914063 31.55078125 44.83203125 C31.36902344 44.28933594 31.18726563 43.74664063 31 43.1875 C30.443125 43.744375 29.88625 44.30125 29.3125 44.875 C28.1678125 46.0196875 28.1678125 46.0196875 27 47.1875 C26.278125 48.074375 25.55625 48.96125 24.8125 49.875 C21.07388398 52.94897318 17.76745347 53.31248942 13 53.1875 C12.01 52.8575 11.02 52.5275 10 52.1875 C9.26174046 50.21280577 8.61126171 48.20512325 8 46.1875 C6.86517205 43.52770422 5.61933577 40.92257015 4.375 38.3125 C3.88773438 37.27996094 3.88773438 37.27996094 3.390625 36.2265625 C2.59676528 34.54544781 1.79880442 32.86627079 1 31.1875 C0.67 31.1875 0.34 31.1875 0 31.1875 Z M-44 152.1875 C-43 154.1875 -43 154.1875 -43 154.1875 Z " fill="#000000" transform="translate(959,542.8125)"/>
<path d="M0 0 C0.66 2.31 1.32 4.62 2 7 C0.71057684 7.87830273 -0.58172682 8.75237623 -1.875 9.625 C-2.68582031 10.17542969 -3.49664063 10.72585938 -4.33203125 11.29296875 C-7 13 -7 13 -9.82421875 14.48828125 C-12.41048912 15.85704916 -14.74965684 17.127015 -17 19 C-17.83787121 22.75789481 -17.83787121 22.75789481 -17 26 C-16.21496094 25.95359375 -15.42992187 25.9071875 -14.62109375 25.859375 C-7.78269582 25.62443618 -3.45137204 25.70849436 2 30 C6.46284932 36.19356406 7.26312307 44.20839035 6.8515625 51.703125 C5.92271594 56.85559458 3.76253764 60.32335932 0 64 C-7.70517605 69.097869 -17.5735397 73.68482831 -27 73 C-29.58616173 71.1156108 -30.77102203 69.89696197 -31.56640625 66.78125 C-31.56511719 66.0284375 -31.56382812 65.275625 -31.5625 64.5 C-31.58441406 63.7471875 -31.60632813 62.994375 -31.62890625 62.21875 C-30.68665654 58.89453983 -28.8294266 57.89404689 -26 56 C-22.95440968 54.41787516 -19.8610892 52.99361699 -16.7421875 51.5625 C-13.91863833 49.95364007 -12.49274471 48.87652995 -11 46 C-11.21717352 43.79199472 -11.21717352 43.79199472 -12 42 C-12.65226563 42.2165625 -13.30453125 42.433125 -13.9765625 42.65625 C-23.86554622 45.80672269 -23.86554622 45.80672269 -28 45 C-32.17274653 40.82725347 -31.76970035 34.56208549 -32 29 C-32.05285156 27.87980469 -32.10570312 26.75960938 -32.16015625 25.60546875 C-32.4484551 14.63757755 -32.4484551 14.63757755 -29 10 C-25.45805284 6.8765898 -21.90469846 4.78970036 -17.625 2.8125 C-16.54476562 2.30332031 -15.46453125 1.79414063 -14.3515625 1.26953125 C-9.60429024 -0.52867794 -4.913234 -1.76876424 0 0 Z " fill="#000000" transform="translate(944,466)"/>
<path d="M0 0 C9.19360269 8.53894987 10.93794303 28.05040214 11.69213867 40.02148438 C11.5234375 42.34375 11.5234375 42.34375 9.5234375 44.34375 C3.40877162 45.81579919 3.40877162 45.81579919 0.40112305 44.2121582 C-2.02868775 41.79435271 -2.41614992 39.9732343 -3.14453125 36.63671875 C-3.52448242 34.92923462 -3.52448242 34.92923462 -3.91210938 33.18725586 C-4.16025391 31.98077393 -4.40839844 30.77429199 -4.6640625 29.53125 C-4.92380859 28.31123291 -5.18355469 27.09121582 -5.45117188 25.83422852 C-9.04957361 8.3989493 -9.04957361 8.3989493 -8.4765625 1.34375 C-5.40736484 -1.72544766 -3.75823409 -2.51339314 0 0 Z " fill="#000000" transform="translate(960.4765625,460.65625)"/>
<path d="M0 0 C2.58455285 1.89533875 2.96275506 2.88826517 4 6 C4.53094699 10.64796219 4.64784823 13.96344284 2.125 18 C-1.60305329 21.50875604 -4.63012903 21.33193611 -9.58203125 21.2890625 C-12 21 -12 21 -14.5625 19.1875 C-17.51044341 14.70149915 -17.49873707 10.19439358 -17 5 C-15.49281214 1.54233374 -14.27208883 1.10988203 -10.75 -0.3125 C-6.73373783 -1.04881473 -3.95257669 -0.98814417 0 0 Z " fill="#000000" transform="translate(983,625)"/>
<path d="M0 0 C2.45623417 1.76345018 3.60078043 3.03521937 4.75 5.8125 C5.2387481 10.0890459 5.36735214 13.89794358 4 18 C-0.37570564 20.81295362 -3.83257837 21.75162496 -9 21 C-11.85884067 19.01124127 -13.53623822 17.47615676 -14.59765625 14.09765625 C-15.33589928 9.6766836 -15.11934791 6.04602784 -13 2 C-8.93508576 -0.63023862 -4.67555055 -0.44529053 0 0 Z " fill="#000000" transform="translate(1023,630)"/>
<path d="M0 0 C0.86625 0.66 1.7325 1.32 2.625 2 C2.318107 5.37582301 1.99333054 7.50889261 -0.0625 10.25 C-4.44140821 13.56376837 -9.01756084 14.43956614 -14.40625 14.3359375 C-17.73766254 13.76748218 -19.76381446 12.08894844 -22.375 10 C-21.76212231 3.5034965 -21.76212231 3.5034965 -20.1015625 1.34375 C-14.73702974 -2.83136147 -5.63039291 -3.33652913 0 0 Z " fill="#000000" transform="translate(300.375,442)"/>
<path d="M0 0 C-0.29271028 3.21981311 -0.68420574 5.50571334 -2.4375 8.25 C-6.33967392 10.91489926 -10.27883804 11.92770043 -15 12 C-17.8150133 11.01349976 -19.5663224 9.79880518 -22 8 C-21.72603479 4.07316532 -21.22390251 2.27231386 -18.6875 -0.8125 C-12.67132451 -5.70938703 -6.19644013 -4.318731 0 0 Z " fill="#000000" transform="translate(356,430)"/>
<path d="M0 0 C1.2834998 4.0911556 2.38021934 7.6908475 2 12 C0.10511048 13.89488952 -2.57139146 13.18019112 -5.08984375 13.23046875 C-7 13 -7 13 -9 11 C-9.1953125 8.6171875 -9.1953125 8.6171875 -9.125 5.875 C-9.10695313 4.96492187 -9.08890625 4.05484375 -9.0703125 3.1171875 C-9.04710937 2.41851563 -9.02390625 1.71984375 -9 1 C-6.04335481 -0.4783226 -3.25770263 -0.06032783 0 0 Z " fill="#000000" transform="translate(975,516)"/>
<path d="M0 0 C0.66 0.33 1.32 0.66 2 1 C1.01 1.66 0.02 2.32 -1 3 C-0.67 2.01 -0.34 1.02 0 0 Z " fill="#000000" transform="translate(1071,704)"/>
<path d="M0 0 C0.33 0.66 0.66 1.32 1 2 C0.34 1.67 -0.32 1.34 -1 1 C-0.67 0.67 -0.34 0.34 0 0 Z " fill="#000000" transform="translate(1069,707)"/>
<path d="" fill="#000000" transform="translate(0,0)"/>
<path d="M0 0 C2 1 2 1 2 1 Z " fill="#000000" transform="translate(401,513)"/>
<path d="" fill="#000000" transform="translate(0,0)"/>
<path d="" fill="#000000" transform="translate(0,0)"/>
<path d="" fill="#000000" transform="translate(0,0)"/>
<path d="" fill="#000000" transform="translate(0,0)"/>
<path d="" fill="#000000" transform="translate(0,0)"/>
<path d="" fill="#000000" transform="translate(0,0)"/>
<path d="" fill="#000000" transform="translate(0,0)"/>
<path d="" fill="#000000" transform="translate(0,0)"/>
<path d="" fill="#000000" transform="translate(0,0)"/>
<path d="" fill="#000000" transform="translate(0,0)"/>
</svg>
