<?xml version="1.0" encoding="UTF-8"?>
<svg version="1.1" xmlns="http://www.w3.org/2000/svg" width="985" height="761">
<path d="M0 0 C1.52214615 -0.01205475 1.52214615 -0.01205475 3.07504272 -0.02435303 C50.14568904 -0.30694532 50.14568904 -0.30694532 64.9140625 12.35546875 C77.77368701 25.59934499 79.63638295 47.92725973 82.9375 65.25 C83.37859888 67.53274279 83.81984305 69.81545751 84.26123047 72.09814453 C92.02046055 112.47716921 92.02046055 112.47716921 91.875 122.375 C92.596875 122.436875 93.31875 122.49875 94.0625 122.5625 C100.43145708 124.40242093 104.2610905 131.3980067 107.9375 136.5625 C108.49606689 137.34044922 109.05463379 138.11839844 109.63012695 138.91992188 C114.26542172 145.41910678 118.72021917 152.03286595 123.09204102 158.71166992 C123.79478149 159.78251831 123.79478149 159.78251831 124.51171875 160.875 C124.92123779 161.5040625 125.33075684 162.133125 125.75268555 162.78125 C126.91669449 164.53070516 126.91669449 164.53070516 128.875 166.375 C129.57248583 167.69247324 130.24459957 169.02414193 130.875 170.375 C131.431875 169.715 131.98875 169.055 132.5625 168.375 C134.875 166.375 134.875 166.375 137.3125 165.625 C141.10247834 166.73426195 142.07746387 169.29382827 143.95703125 172.625 C144.25996094 173.2025 144.56289063 173.78 144.875 174.375 C145.555625 173.385 146.23625 172.395 146.9375 171.375 C149.24574557 168.59326816 149.67256942 168.40641164 153.5 167.8125 C156.875 168.375 156.875 168.375 158.29296875 169.8984375 C159.79519121 171.5880186 159.79519121 171.5880186 162.13671875 171.66796875 C162.93722656 171.63316406 163.73773437 171.59835938 164.5625 171.5625 C165.37074219 171.53542969 166.17898438 171.50835937 167.01171875 171.48046875 C167.62660156 171.44566406 168.24148438 171.41085938 168.875 171.375 C169.205 172.365 169.535 173.355 169.875 174.375 C171.36 173.385 171.36 173.385 172.875 172.375 C174.8646995 171.98486284 176.86519869 171.64297351 178.875 171.375 C178.69960693 170.09064056 178.52421387 168.80628113 178.34350586 167.48300171 C176.68555576 155.33313458 175.0374832 143.18196238 173.39888 131.02947044 C172.55630349 124.78296594 171.71034752 118.53695937 170.85644531 112.29199219 C170.0313216 106.25654188 169.21536663 100.21991438 168.4055481 94.18239212 C168.09621177 91.88808301 167.7836668 89.59420398 167.46774292 87.30079269 C162.79479791 53.33398327 162.79479791 53.33398327 167.875 45.375 C177.57094167 34.10674347 198.25703085 34.95513028 211.99609375 33.90625 C233.59246588 32.16568778 254.94188071 28.98503973 276.3449707 25.68725586 C300.37931267 22.00510358 324.4181644 19.305389 348.6875 17.8125 C349.64823425 17.75185364 350.60896851 17.69120728 351.59881592 17.62872314 C385.92270825 15.46903482 420.24554908 14.20568385 454.63330078 13.71630859 C463.87293328 13.57898893 473.05025836 13.42228323 482.2578125 12.59985352 C486.11053962 12.26884963 489.94712777 12.15453484 493.8125 12.125 C494.51439453 12.104375 495.21628906 12.08375 495.93945312 12.0625 C500.68406751 12.02699306 503.84685058 12.88280666 507.875 15.375 C517.53387373 25.58580937 516.23591336 47.17139136 517.46875 60.34375 C517.70327484 62.78867478 517.93843601 65.23353859 518.17419434 67.67834473 C518.66655734 72.80170075 519.15354267 77.92552823 519.63623047 83.04980469 C520.24371628 89.49797475 520.86090214 95.94516537 521.48166943 102.39206886 C523.68697336 125.30903638 525.86607831 148.22756811 527.67578125 171.1796875 C527.76513443 172.30776573 527.76513443 172.30776573 527.85629272 173.45863342 C529.36348441 192.63831029 529.94820945 211.79062725 530.04922485 231.02386475 C530.05794972 232.61018641 530.06940355 234.19649584 530.08383179 235.78277588 C530.25864233 257.44599242 530.25864233 257.44599242 525.4375 264.1875 C512.41574811 277.30138693 484.16092457 279.2963418 466.44824219 279.46655273 C462.56760293 279.45341702 458.68831747 279.37774338 454.80856323 279.29736328 C435.60148249 278.93290522 416.68335371 280.17389768 397.56616211 281.95263672 C396.57861938 282.04439178 395.59107666 282.13614685 394.5736084 282.23068237 C392.73282313 282.40409851 390.89244428 282.58191376 389.0526123 282.76516724 C388.2230603 282.84524017 387.3935083 282.92531311 386.53881836 283.0078125 C385.47189003 283.11440186 385.47189003 283.11440186 384.38340759 283.22314453 C380.88664117 283.43483385 377.37816825 283.375 373.875 283.375 C373.545 288.985 373.215 294.595 372.875 300.375 C374.26460937 300.32988281 375.65421875 300.28476562 377.0859375 300.23828125 C385.3530984 300.24489075 393.5165544 301.26602519 401.71533203 302.23657227 C404.47148333 302.5591623 407.22949755 302.8590846 409.98828125 303.15820312 C427.00325121 305.09625777 442.11531091 309.73652374 457.875 316.375 C460.94459737 317.65687894 464.01507944 318.93662258 467.08569336 320.21606445 C469.19174569 321.09484773 471.29677645 321.97608442 473.40063477 322.86010742 C474.38088623 323.27107666 475.3611377 323.6820459 476.37109375 324.10546875 C477.30937012 324.49911621 478.24764648 324.89276367 479.21435547 325.29833984 C481.61464996 326.26964639 484.02686584 327.14032643 486.47265625 327.98828125 C489.875 329.375 489.875 329.375 491.875 332.375 C492.17578125 334.96875 492.17578125 334.96875 492.1875 337.875 C492.20425781 338.8340625 492.22101562 339.793125 492.23828125 340.78125 C491.81613606 343.79527587 491.05932454 344.3967983 488.875 346.375 C489.6804425 346.37864563 490.48588501 346.38229126 491.31573486 346.38604736 C498.9082903 346.42392248 506.50035479 346.48076888 514.09259415 346.55890274 C517.99582851 346.59840347 521.89883641 346.6305789 525.80224609 346.64599609 C529.5696841 346.66114608 533.33649963 346.69556073 537.10366058 346.74330902 C538.54050026 346.7581402 539.97742881 346.76604202 541.41434479 346.76688385 C543.42770247 346.76924964 545.44097368 346.79859065 547.45410156 346.82910156 C548.59993713 346.83798401 549.74577271 346.84686646 550.92633057 346.85601807 C554.49721603 347.48451342 555.68294941 348.54128552 557.875 351.375 C558.37109375 353.62890625 558.37109375 353.62890625 558.3125 355.9375 C558.31121094 356.70191406 558.30992187 357.46632813 558.30859375 358.25390625 C557.75788402 360.9479187 557.03747704 361.69422023 554.875 363.375 C552.38314629 363.87037659 552.38314629 363.87037659 549.44503784 364.03344727 C548.37044186 364.09791046 547.29584587 364.16237366 546.18868637 364.22879028 C545.09516987 364.27703949 544.00165337 364.3252887 542.875 364.375 C541.89640141 364.42171844 540.91780281 364.46843689 539.90954971 364.51657104 C536.85821033 364.6458085 533.80703538 364.74645495 530.75439453 364.83984375 C529.60779861 364.87739777 528.4612027 364.91495178 527.27986145 364.9536438 C523.52259624 365.07605383 519.76521059 365.19424547 516.0078125 365.3125 C513.36480684 365.39805023 510.72181132 365.48386867 508.0788269 365.57006836 C501.84042376 365.77302699 495.60193342 365.97314651 489.36339843 366.17200756 C478.24545329 366.52643767 467.12762777 366.88456201 456.00989044 367.24545002 C451.50934955 367.39139423 447.00873124 367.53476864 442.50808716 367.67749023 C430.72507973 368.05536385 418.94682936 368.46136732 407.17271614 369.06166077 C398.73963916 369.47742959 390.31592165 369.46878802 381.875 369.375 C382.11512817 371.21034302 382.11512817 371.21034302 382.36010742 373.08276367 C383.02068352 379.06933017 383.073586 385.03272782 383.11328125 391.05078125 C383.12302979 392.27265137 383.13277832 393.49452148 383.14282227 394.75341797 C383.16793771 398.73145392 383.18128578 402.70939968 383.1875 406.6875 C383.18879787 407.36773098 383.19009575 408.04796196 383.19143295 408.748806 C383.23862857 441.41376597 380.26687823 473.32618379 375.99127197 505.68081665 C374.14787686 519.71443374 372.97128634 533.75144975 372.0625 547.875 C371.96761795 549.32250641 371.96761795 549.32250641 371.87081909 550.79925537 C370.98446425 564.55448045 370.2303515 578.29987356 371.375 592.0625 C371.94855401 599.80963536 372.02396269 607.5457872 372.0625 615.3125 C372.07539062 616.56957764 372.08828125 617.82665527 372.1015625 619.12182617 C372.11707456 633.63820906 372.11707456 633.63820906 368.375 639.875 C364.47858222 642.21285067 360.31162097 642.03972022 355.875 641.375 C353.875 639.375 353.875 639.375 353.6796875 637.38574219 C353.70289063 636.57266602 353.72609375 635.75958984 353.75 634.921875 C353.76675781 634.00446533 353.78351562 633.08705566 353.80078125 632.1418457 C353.82527344 631.14628662 353.84976563 630.15072754 353.875 629.125 C353.98320378 621.22796867 353.73094792 613.53720417 352.875 605.6875 C348.65562326 563.25284047 355.84694329 520.18356649 361.79400635 478.22427368 C361.939328 477.19893524 362.08464966 476.1735968 362.234375 475.1171875 C362.37727966 474.1090097 362.52018433 473.10083191 362.66741943 472.06210327 C366.7156964 443.32309774 369.47881922 414.48508081 370.53393555 385.47338867 C370.58094604 384.2413269 370.58094604 384.2413269 370.62890625 382.984375 C370.65283447 382.28280273 370.6767627 381.58123047 370.70141602 380.85839844 C370.94715344 377.34272889 371.41876055 373.86954135 371.875 370.375 C371.1526265 370.4251123 370.43025299 370.47522461 369.68598938 370.52685547 C355.78507025 371.49037542 341.88370101 372.44539958 327.98046875 373.375 C325.49544074 373.54163732 323.01041471 373.70830409 320.52539062 373.875 C316.78367317 374.12596736 313.0419222 374.37636731 309.30004883 374.625 C295.4262542 375.547697 281.56092481 376.49711844 267.71366882 377.765625 C262.07416739 378.2648479 256.53705478 378.45587102 250.875 378.375 C250.54628906 379.77685547 250.54628906 379.77685547 250.2109375 381.20703125 C249.89219679 382.53423263 249.57173504 383.86102131 249.25 385.1875 C249.07831299 385.89801514 248.90662598 386.60853027 248.72973633 387.34057617 C247.51035303 392.23135779 246.0319166 396.97282626 244.39355469 401.73828125 C240.43733378 412.89762049 240.43733378 412.89762049 241.875 424.375 C243.71321247 427.97095019 245.71788142 431.40658702 247.8203125 434.8515625 C250.94979283 440.06167826 252.91155968 445.64200598 254.875 451.375 C255.11992188 452.08769043 255.36484375 452.80038086 255.6171875 453.53466797 C257.41916056 458.7989717 259.16512641 464.08011746 260.875 469.375 C261.19726562 470.37144531 261.51953125 471.36789062 261.8515625 472.39453125 C265.42769265 483.8634335 266.37454445 495.1251441 266.9375 507.0625 C267.01556987 508.62438442 267.09434198 510.18623389 267.17382812 511.74804688 C267.21285248 512.51593536 267.25187683 513.28382385 267.29208374 514.07498169 C267.44715302 517.11107704 267.60307844 520.14712389 267.76153564 523.18304443 C267.83643222 524.62993025 267.90950848 526.0769116 267.98065186 527.52398682 C268.08184375 529.54375826 268.19499851 531.56291942 268.30859375 533.58203125 C268.36974365 534.72776611 268.43089355 535.87350098 268.49389648 537.05395508 C268.79117204 540.48010932 268.79117204 540.48010932 269.96508789 544.08081055 C270.93880805 547.60600671 270.7784593 549.35887403 269.10546875 552.6171875 C261.83971494 562.9968358 248.71341546 567.62222995 236.875 570.375 C234.09573126 570.63750964 231.66712522 570.59399021 228.875 570.375 C229.07053467 571.1985498 229.26606934 572.02209961 229.4675293 572.87060547 C230.94448791 579.37321883 232.13939852 585.75613273 232.83203125 592.3828125 C232.90412811 593.04931824 232.97622498 593.71582397 233.05050659 594.40252686 C233.34288081 597.13291484 233.62958784 599.86289209 233.87817383 602.59765625 C234.0672626 604.63363091 234.29050471 606.66349582 234.51953125 608.6953125 C234.63659424 609.88398926 234.75365723 611.07266602 234.87426758 612.29736328 C236.20796293 616.39898895 238.19011449 617.30718872 241.875 619.375 C244.35815042 621.66211223 245.6936247 623.2194967 246.22265625 626.58984375 C246.445203 632.55990213 246.445203 632.55990213 244.65625 635.1171875 C240.89771871 637.7712381 236.23852535 636.95827073 231.875 636.375 C227.66601285 635.09424188 223.81340019 633.32330673 219.875 631.375 C219.02679687 630.98699219 218.17859375 630.59898437 217.3046875 630.19921875 C209.22957471 626.21105143 202.44144005 620.51565678 195.42578125 614.9453125 C189.41078085 610.18391639 183.1645204 605.7635078 176.875 601.375 C176.875 604.12065776 177.93625691 605.87708676 179.10546875 608.36328125 C179.57686279 609.37390625 180.04825684 610.38453125 180.53393555 611.42578125 C181.03836182 612.50214844 181.54278809 613.57851563 182.0625 614.6875 C193.82422786 640.14835852 193.82422786 640.14835852 192.875 648.375 C191.0246801 650.2253199 188.45027918 649.66640132 185.98046875 649.80078125 C182.88799804 649.1754022 181.86292839 647.80294416 179.875 645.375 C178.49158489 643.07311134 177.24870503 640.8361575 176.0625 638.4375 C175.72210693 637.75091309 175.38171387 637.06432617 175.03100586 636.35693359 C172.25170821 630.54608437 170.00728204 624.59620166 167.9375 618.5 C167.49603638 617.21814819 167.49603638 617.21814819 167.0456543 615.91040039 C165.14737313 610.08040783 164.24591699 604.49064676 163.875 598.375 C155.90837827 607.38465573 149.16387125 617.0222033 142.47119141 626.99853516 C122.67175174 656.47662413 122.67175174 656.47662413 118.875 658.375 C117.37850638 658.49505453 115.87625207 658.55031451 114.375 658.5625 C113.5809375 658.57667969 112.786875 658.59085938 111.96875 658.60546875 C109.875 658.375 109.875 658.375 107.875 656.375 C106.76873333 649.4579221 107.69848057 644.39745332 111.78125 638.73828125 C112.1421875 638.28839844 112.503125 637.83851563 112.875 637.375 C111.76125 637.08625 110.6475 636.7975 109.5 636.5 C105.875 635.375 105.875 635.375 103.875 633.375 C103.40006667 629.75495262 103.54410283 626.0848081 103.5625 622.4375 C103.56596436 621.33317627 103.56942871 620.22885254 103.57299805 619.09106445 C103.67978326 610.69633062 104.27469407 602.4062353 105.1875 594.0625 C105.30504639 592.97396729 105.42259277 591.88543457 105.54370117 590.76391602 C106.41838556 583.46183839 107.93256296 576.46549104 109.875 569.375 C108.78445313 569.34921875 107.69390625 569.3234375 106.5703125 569.296875 C98.27655506 569.01667422 90.29766928 568.31512502 82.1875 566.5 C81.45869629 566.33854492 80.72989258 566.17708984 79.97900391 566.01074219 C73.405828 564.44822864 66.61962776 562.40718096 61.875 557.375 C61.49327351 554.19394588 61.43764754 552.24970493 62.875 549.375 C63.84355396 543.11839095 64.00067731 536.78542669 64.16601562 530.46728516 C64.48936147 518.32113705 64.99972705 506.00081884 68.875 494.375 C69.11207557 492.58475046 69.31144114 490.78938694 69.48828125 488.9921875 C71.78051474 466.82453152 75.14997962 446.90628238 87.203125 427.76171875 C89.53850214 423.03094309 90.55870135 419.12540854 89.28662109 414.00805664 C88.42113586 411.48384971 87.45926362 409.02743258 86.4375 406.5625 C85.76810715 404.89093044 85.10256386 403.21781268 84.44140625 401.54296875 C84.14177979 400.81360107 83.84215332 400.0842334 83.53344727 399.33276367 C82.875 397.375 82.875 397.375 82.875 394.375 C82.215 394.705 81.555 395.035 80.875 395.375 C79.03782628 395.62332357 77.19355009 395.81980444 75.34765625 395.99169922 C74.18063171 396.10215576 73.01360718 396.2126123 71.81121826 396.32641602 C69.89372772 396.5012854 69.89372772 396.5012854 67.9375 396.6796875 C66.59626977 396.80451811 65.25506333 396.92960457 63.91387939 397.05493164 C60.31301262 397.38997758 56.71163078 397.71913089 53.11006165 398.04653168 C50.88215145 398.24934897 48.65437853 398.4536169 46.42663574 398.65826416 C28.00447218 400.34842544 9.57974035 401.95303621 -8.875 403.25 C-10.17727539 403.34181549 -10.17727539 403.34181549 -11.50585938 403.43548584 C-13.9151502 403.60360147 -16.32464505 403.76799805 -18.734375 403.9296875 C-19.76422516 403.99953857 -19.76422516 403.99953857 -20.81488037 404.07080078 C-24.25935997 404.29347067 -27.67431602 404.39198325 -31.125 404.375 C-31.1152565 405.13229401 -31.105513 405.88958801 -31.09547424 406.66983032 C-31.02550765 416.8472031 -31.40396507 426.98575201 -31.83521843 437.15220261 C-31.96852744 440.2978606 -32.09804947 443.44365627 -32.22669983 446.58950806 C-32.54774456 454.42259502 -32.87456234 462.25543849 -33.2020874 470.08825684 C-34.93094321 511.45431314 -36.43975213 552.73219104 -35.95361328 594.13842773 C-35.91168209 597.95298843 -35.88803932 601.76730574 -35.8671875 605.58203125 C-35.83925613 607.30641167 -35.83925613 607.30641167 -35.8107605 609.06562805 C-35.80730621 610.11751816 -35.80385193 611.16940826 -35.80029297 612.25317383 C-35.79061493 613.17399246 -35.78093689 614.0948111 -35.77096558 615.04353333 C-36.19392683 617.82891239 -36.90060039 618.70088009 -39.125 620.375 C-41.0625 620.7734375 -41.0625 620.7734375 -43.125 620.75 C-43.805625 620.75773438 -44.48625 620.76546875 -45.1875 620.7734375 C-47.80775346 620.23459506 -48.58951021 619.5737487 -50.125 617.375 C-53.26121739 604.23107769 -52.825604 589.8034651 -53.125 576.375 C-53.16802246 574.60334473 -53.16802246 574.60334473 -53.21191406 572.79589844 C-53.75487196 546.90574128 -52.01292809 521.18389661 -50.125 495.375 C-50.00901459 493.77975494 -50.00901459 493.77975494 -49.89068604 492.15228271 C-44.70140227 421.03694171 -44.70140227 421.03694171 -41.125 404.375 C-41.69474517 404.53362141 -42.26449034 404.69224281 -42.85150051 404.85567093 C-45.11433802 405.37256451 -47.18483424 405.57519449 -49.50099182 405.68426514 C-50.78789996 405.74565107 -50.78789996 405.74565107 -52.10080624 405.80827713 C-53.02603871 405.84673122 -53.95127119 405.88518532 -54.90454102 405.92480469 C-55.87905747 405.96677349 -56.85357393 406.00874229 -57.85762119 406.05198288 C-68.78788472 406.48933826 -79.71463695 406.5582282 -90.65234375 406.578125 C-92.27014331 406.58236607 -92.27014331 406.58236607 -93.92062569 406.58669281 C-99.63906202 406.60154262 -105.3574741 406.61085898 -111.07592773 406.61523438 C-115.7032876 406.61959577 -120.33045858 406.63341777 -124.95776367 406.65625 C-241.22197533 407.21800972 -241.22197533 407.21800972 -264.125 391.375 C-266.125 389.375 -266.125 389.375 -266.3125 386.8125 C-266.125 384.375 -266.125 384.375 -265.125 383.375 C-260.84025077 383.01034049 -257.65511078 383.4248761 -253.58203125 384.79296875 C-248.01124878 386.51041907 -242.53507271 387.31319843 -236.75 387.9375 C-235.62319824 388.06044434 -234.49639648 388.18338867 -233.33544922 388.31005859 C-197.73156415 391.98725207 -161.8795166 391.94456498 -126.125 392.375 C-125.98578125 391.25391846 -125.8465625 390.13283691 -125.703125 388.9777832 C-125.125 385.375 -125.125 385.375 -123.875 383.73046875 C-123.2975 383.34503906 -122.72 382.95960938 -122.125 382.5625 C-121.40183594 382.07394531 -120.67867187 381.58539063 -119.93359375 381.08203125 C-115.65986454 378.48450738 -111.33096938 375.98316354 -106.99609375 373.48925781 C-93.81880355 365.93025597 -93.81880355 365.93025597 -82.125 356.375 C-81.962551 353.85704045 -81.87040527 351.34240079 -81.796875 348.8203125 C-81.57515625 348.01335937 -81.3534375 347.20640625 -81.125 346.375 C-79.89535522 345.8636853 -79.89535522 345.8636853 -78.64086914 345.34204102 C-75.99438228 343.68057548 -75.99438228 343.68057548 -75.60305786 341.40838623 C-75.35059918 338.75140392 -75.2497774 336.12559997 -75.19921875 333.45703125 C-75.1619014 332.48465012 -75.12458405 331.51226898 -75.08613586 330.51042175 C-74.97212828 327.40307948 -74.89193182 324.29589976 -74.8125 321.1875 C-74.74115561 319.08130372 -74.66761497 316.97518061 -74.59179688 314.86914062 C-74.41069806 309.70493093 -74.25991451 304.54061428 -74.125 299.375 C-75.02224792 299.38388245 -75.91949585 299.39276489 -76.84393311 299.4019165 C-85.48575779 299.48355759 -94.12744511 299.54369828 -102.76957321 299.58224869 C-107.20788345 299.60273666 -111.64586399 299.6302985 -116.08398438 299.67675781 C-139.0863726 299.91082794 -161.48734144 298.93589789 -184.29614258 295.88598633 C-187.70900845 295.43051682 -191.12345018 294.99851658 -194.54101562 294.58007812 C-199.86577368 293.92289084 -205.18349734 293.22063989 -210.5 292.5 C-211.41562714 292.37693481 -212.33125427 292.25386963 -213.27462769 292.1270752 C-227.10002449 290.26479974 -240.90241145 288.26507581 -254.6875 286.125 C-255.50281189 286.00030334 -256.31812378 285.87560669 -257.15814209 285.74713135 C-259.44130831 285.39614835 -261.72276577 285.03576353 -264.00390625 284.671875 C-265.93085327 284.36781738 -265.93085327 284.36781738 -267.89672852 284.05761719 C-271.45221697 283.30581005 -274.12070307 282.68058601 -276.375 279.75 C-277.7148285 275.50720974 -277.58312173 271.30929173 -276.5625 267 C-274.26440457 264.402153 -271.41632402 264.10640534 -268.125 263.375 C-268.43308594 262.13234375 -268.74117187 260.8896875 -269.05859375 259.609375 C-272.18927953 245.45371031 -272.14287027 230.31506283 -272.62109375 215.87109375 C-272.6619812 214.65910812 -272.70286865 213.4471225 -272.74499512 212.19841003 C-273.40948987 191.50998146 -273.76618013 170.81207308 -274.1875 150.11761475 C-274.33078846 143.08486588 -274.47606144 136.05216288 -274.625 129.01953125 C-274.64539652 128.05544342 -274.66579304 127.09135559 -274.68680763 126.09805298 C-274.98872202 111.99274421 -275.43261122 97.90167728 -276.02679443 83.8053894 C-276.24974953 78.28770103 -276.38336216 72.77205931 -276.4375 67.25 C-276.46650391 66.19425781 -276.49550781 65.13851562 -276.52539062 64.05078125 C-276.57680297 57.73101727 -276.23680261 52.42156896 -272.125 47.375 C-267.01954654 42.87108883 -261.0919498 41.20803177 -254.5625 39.8125 C-253.64033691 39.60689453 -252.71817383 39.40128906 -251.76806641 39.18945312 C-248.89140561 38.56132303 -246.01003824 37.96334688 -243.125 37.375 C-242.29210449 37.2011377 -241.45920898 37.02727539 -240.60107422 36.84814453 C-228.94709957 34.46622549 -217.22465047 33.01352168 -205.41040039 31.72412109 C-171.24010131 27.9939086 -137.88467352 21.55157545 -104.36013794 14.03167725 C-86.87556701 10.11314167 -69.39300561 6.63938147 -51.68017578 3.92871094 C-48.55797551 3.442435 -45.45038579 2.90632984 -42.33984375 2.3515625 C-28.30793346 0.03058958 -14.18514409 0.06258929 0 0 Z M-119.13833618 38.20887756 C-147.02156748 43.88813996 -174.63014205 48.64351466 -202.94766235 51.5579834 C-213.64337351 52.6669581 -224.22526558 54.04118297 -234.8125 55.9375 C-236.47526978 56.23418579 -236.47526978 56.23418579 -238.17163086 56.53686523 C-247.82616661 58.31204362 -247.82616661 58.31204362 -257.125 61.375 C-258.66618806 64.45737611 -258.24868181 67.69293704 -258.22747803 71.07420349 C-258.2263656 71.87825546 -258.22525317 72.68230743 -258.22410703 73.5107246 C-258.21904568 76.21999444 -258.20668873 78.92918202 -258.19433594 81.63842773 C-258.18910575 83.57471618 -258.18427819 85.51100575 -258.17982483 87.44729614 C-258.16614924 92.71789832 -258.14570374 97.98845295 -258.12325954 103.25902438 C-258.10941701 106.54861144 -258.09677431 109.83820097 -258.0845108 113.12779427 C-258.04588395 123.41089 -258.00324061 133.69395716 -257.95473552 143.97701114 C-257.89867844 155.86492401 -257.85567436 167.75278887 -257.82405448 179.64079136 C-257.7988759 188.81877778 -257.76229514 197.99667413 -257.71696877 207.17458302 C-257.69011783 212.66151099 -257.66814501 218.14835719 -257.65795135 223.63534355 C-257.64804074 228.79407905 -257.62402998 233.95255501 -257.58901787 239.11117935 C-257.5785958 241.00787934 -257.57331021 242.9046153 -257.57345009 244.80134392 C-257.57286163 247.3841304 -257.55402714 249.96614907 -257.53045654 252.54881287 C-257.534622 253.30522692 -257.53878746 254.06164097 -257.54307914 254.84097666 C-257.48883302 258.82407712 -257.48883302 258.82407712 -255.78320694 262.33357334 C-253.11401987 264.00993985 -250.60243937 263.89228695 -247.48046875 264.04296875 C-246.03380863 264.12764345 -244.58719652 264.21314116 -243.140625 264.29931641 C-242.35880859 264.34131165 -241.57699219 264.38330688 -240.77148438 264.42657471 C-219.21888413 265.61793791 -197.88898747 268.43606979 -176.51430893 271.32454014 C-156.25383262 274.06192351 -136.62824 275.55521831 -116.1875 275.5 C-115.16765015 275.4984491 -114.14780029 275.49689819 -113.0970459 275.49530029 C-56.48741257 275.39519776 -1.45935825 271.76841958 53.6875 258.125 C54.63463867 257.89119629 55.58177734 257.65739258 56.55761719 257.41650391 C59.01402598 256.78406692 61.44439461 256.09960156 63.875 255.375 C64.57665283 255.18478271 65.27830566 254.99456543 66.0012207 254.79858398 C68.17482676 254.16121457 68.17482676 254.16121457 70.875 252.375 C71.80707928 249.64326592 72.19466998 247.74346473 72.4375 244.9375 C73.34151718 237.98597196 74.81919378 231.45366173 76.875 224.75 C77.12451416 223.92185791 77.37402832 223.09371582 77.63110352 222.24047852 C78.74006922 218.65590247 79.79287585 215.52275014 81.625 212.2265625 C86.09644365 201.88246504 80.59612622 186.11568593 78.35397339 175.64498901 C74.79184958 158.9394905 71.77478625 142.2137486 69.3125 125.3125 C67.03317034 109.71782366 64.52468083 94.19106617 61.6875 78.6875 C61.52482635 77.79368622 61.36215271 76.89987244 61.19454956 75.97897339 C60.27328479 70.93143596 59.32874926 65.88902978 58.35357666 60.85162354 C58.02710761 59.16215349 57.704305 57.47197182 57.38470459 55.78118896 C56.89780005 53.2200172 56.39444153 50.66258576 55.88671875 48.10546875 C55.74418167 47.34446365 55.60164459 46.58345856 55.45478821 45.7993927 C53.78078701 37.57870351 50.9656374 31.1223423 43.875 26.375 C-5.22455631 7.41122738 -70.00052668 28.19950902 -119.13833618 38.20887756 Z M468.1796875 34.671875 C467.18330796 34.69642447 467.18330796 34.69642447 466.16679955 34.72146988 C406.71617256 36.19886903 347.02450077 37.9918363 288.078125 46.30078125 C284.29348961 46.83307061 280.50882308 47.36513371 276.72406006 47.89651489 C274.17068472 48.25539161 271.61750008 48.61562786 269.06451416 48.9772644 C249.64362679 51.7114457 230.32329105 53.57330456 210.73046875 54.45141602 C195.36896221 54.23646604 195.36896221 54.23646604 181.875 59.375 C181.89610568 61.7901479 181.99076733 64.15829337 182.14453125 66.56640625 C182.19148636 67.32272842 182.23844147 68.0790506 182.28681946 68.85829163 C182.96113639 78.72399211 184.28352871 88.51078467 185.5625 98.3125 C186.10705798 102.54129839 186.6476926 106.77059283 187.1875 111 C187.32633102 112.08421738 187.46516205 113.16843475 187.60820007 114.2855072 C188.62678869 122.28847253 189.57740735 130.29794844 190.5 138.3125 C190.76469626 140.59383527 191.02942568 142.8751667 191.29418945 145.15649414 C191.67708487 148.45938411 192.05690253 151.76246994 192.42660522 155.06686401 C192.76940066 158.12764898 193.12388219 161.18688936 193.48046875 164.24609375 C193.57718872 165.14098511 193.67390869 166.03587646 193.77355957 166.95788574 C194.46001356 172.7303023 195.82683101 177.93550167 197.875 183.375 C199.195 183.375 200.515 183.375 201.875 183.375 C202.70581407 181.20733353 203.5354907 179.03924231 204.36376953 176.87060547 C205.08493068 174.98456738 205.80860105 173.09948699 206.53466797 171.21533203 C208.36039067 166.45441511 210.13038249 161.68943884 211.75390625 156.85546875 C212.049021 155.99542236 212.34413574 155.13537598 212.64819336 154.24926758 C213.20489897 152.61584959 213.74428313 150.97639772 214.26391602 149.33081055 C215.617434 145.41093719 216.31213431 143.76141176 219.828125 141.34765625 C224.24340528 139.93816293 226.36516634 140.28391121 230.875 141.375 C234.99449682 144.47225131 235.99298311 148.08447205 237 152.9375 C237.16540283 153.69820801 237.33080566 154.45891602 237.5012207 155.24267578 C239.62739751 165.93125086 240.06220304 176.86734475 240.64135742 187.72802734 C240.9131962 192.27178084 240.9131962 192.27178084 243.4765625 195.7265625 C244.47816406 196.35691406 244.47816406 196.35691406 245.5 197 C257.29597576 205.56936783 264.39693538 223.24725975 267.55932617 237.22167969 C268.23892259 241.85744181 268.16017359 246.51234386 268.125 251.1875 C268.13660156 252.71213867 268.13660156 252.71213867 268.1484375 254.26757812 C268.13084745 261.16727364 267.33608846 267.63452302 265.875 274.375 C274.55288888 274.55773886 282.90563985 274.1292792 291.5 272.9375 C292.73637207 272.77064697 293.97274414 272.60379395 295.24658203 272.43188477 C310.61971166 270.29285938 325.88851391 267.44417043 341.15087891 264.63696289 C361.78044449 260.86968576 382.46037742 258.21789537 403.375 256.6875 C404.22865143 256.62296631 405.08230286 256.55843262 405.96182251 256.49194336 C419.34941281 255.49907386 432.64262524 255.235834 446.0625 255.375 C477.16351816 256.22393069 477.16351816 256.22393069 505.875 246.375 C511.78077329 231.23237507 506.90717392 205.9133047 505.7421875 189.8515625 C505.67969944 188.96949694 505.61721138 188.08743137 505.55282974 187.17863655 C503.59490184 159.72947383 500.94569514 132.3333635 498.37087631 104.93662757 C497.81009524 98.96496496 497.25613654 92.99268344 496.7037133 87.02024263 C496.0992757 80.48710522 495.49031582 73.95439705 494.87924576 67.42187691 C494.62180051 64.6688636 494.36594108 61.91570985 494.11138535 59.1624279 C493.75974494 55.36166724 493.40148719 51.56154692 493.04248047 47.76147461 C492.93858002 46.62997482 492.83467957 45.49847504 492.72763062 44.33268738 C492.62962158 43.30665405 492.53161255 42.28062073 492.43063354 41.22349548 C492.34695967 40.32989791 492.26328579 39.43630033 492.17707634 38.51562405 C491.98405862 36.32824521 491.98405862 36.32824521 490.875 34.375 C483.30547368 34.33645759 475.74676972 34.48542495 468.1796875 34.671875 Z M92.875 152.375 C92.17648634 159.44112364 94.36244626 165.97857325 96.1875 172.75 C96.6505957 174.52117187 96.6505957 174.52117187 97.12304688 176.328125 C98.46129531 181.38811278 99.83649797 186.39229552 101.5703125 191.33203125 C103.76083027 197.73655481 104.36432912 204.58962183 101.84375 210.99609375 C100.85201552 212.85008627 99.83667093 214.69154347 98.8046875 216.5234375 C95.97023694 221.84593925 94.08929565 227.58518927 92.0625 233.25 C91.66554932 234.34473633 91.26859863 235.43947266 90.85961914 236.56738281 C88.09969942 244.32738196 86.68634129 251.23426171 86.625 259.5 C86.604375 260.20253906 86.58375 260.90507812 86.5625 261.62890625 C86.52954114 265.98771545 87.10416343 268.07131025 89.875 271.375 C89.545 272.365 89.215 273.355 88.875 274.375 C91.74641735 283.27870943 96.13176783 291.02415369 101.875 298.375 C102.45765625 299.13683594 103.0403125 299.89867187 103.640625 300.68359375 C108.37093883 306.73561291 113.41592554 312.51575108 118.48291016 318.28588867 C119.29187744 319.20978394 119.29187744 319.20978394 120.1171875 320.15234375 C120.6004248 320.70140381 121.08366211 321.25046387 121.58154297 321.81616211 C124.9181227 325.83731379 124.9181227 325.83731379 124.625 329.4921875 C123.94015811 333.03767104 123.20602359 336.56261927 122.41455078 340.08544922 C119.51596142 353.05696452 117.59702095 365.22474485 120.875 378.375 C121.535 379.365 122.195 380.355 122.875 381.375 C123.865 381.375 124.855 381.375 125.875 381.375 C127.07450771 379.90893502 128.27140943 378.44058458 129.44921875 376.95703125 C136.73528527 368.87249169 151.44203628 364.98968529 161.9453125 364.12109375 C174.69670935 363.67087359 186.97552286 366.79735581 198.67578125 371.73828125 C201.35135165 372.51291353 202.38286571 372.6586748 204.875 371.375 C206.90879999 368.53230552 206.90879999 368.53230552 208.625 365.0625 C209.54539062 363.33580078 209.54539062 363.33580078 210.484375 361.57421875 C212.14076281 358.34499393 212.14076281 358.34499393 211.875 354.375 C212.865 354.045 213.855 353.715 214.875 353.375 C216.07056866 351.01657725 217.06035012 348.77022744 218 346.3125 C218.39638672 345.34666992 218.39638672 345.34666992 218.80078125 344.36132812 C220.14558025 340.93789311 220.88979995 338.21187163 221.2265625 334.5 C221.77030153 329.15799115 224.47303804 325.01108301 227.125 320.4375 C228.21690921 318.49204324 229.30666986 316.54537936 230.39453125 314.59765625 C231.24845459 313.07809326 231.24845459 313.07809326 232.11962891 311.52783203 C243.643614 291.17484102 243.643614 291.17484102 251.875 269.375 C252.19984375 268.34246094 252.5246875 267.30992187 252.859375 266.24609375 C257.38812519 250.0577981 254.14516172 233.69868326 246.03759766 219.26123047 C243.21471511 214.68130806 239.7572791 210.56621118 236.328125 206.43359375 C232.41145941 201.55023522 230.51274897 198.47199664 230.43359375 192.12109375 C230.39395508 190.34508789 230.39395508 190.34508789 230.35351562 188.53320312 C230.33998047 187.30537109 230.32644531 186.07753906 230.3125 184.8125 C230.27804092 182.37356284 230.23542294 179.93472362 230.18359375 177.49609375 C230.16510376 175.87852173 230.16510376 175.87852173 230.14624023 174.22827148 C229.8797806 171.42528886 229.32096038 169.75973674 227.875 167.375 C225.50125139 167.04074265 225.50125139 167.04074265 222.875 167.375 C219.39368853 170.88446224 218.05526722 175.70814232 216.375 180.25 C211.00651702 194.62065532 211.00651702 194.62065532 207.8125 196.75 C203.44278102 197.67972744 199.29672431 198.25494514 194.875 197.375 C193.36328125 196.03125 193.36328125 196.03125 192.1875 194.375 C191.0428125 192.89 191.0428125 192.89 189.875 191.375 C186.33312169 191.04161404 186.33312169 191.04161404 182.875 191.375 C179.99850424 190.44208246 179.16322496 189.86498244 177.625 187.25 C177.3775 186.63125 177.13 186.0125 176.875 185.375 C175.39 185.87 175.39 185.87 173.875 186.375 C167.57320972 186.94789003 167.57320972 186.94789003 164.4375 184.375 C163.921875 183.715 163.40625 183.055 162.875 182.375 C162.215 183.035 161.555 183.695 160.875 184.375 C157.9375 184.75 157.9375 184.75 154.875 184.375 C153 182.375 153 182.375 151.875 180.375 C151.1015625 181.6125 151.1015625 181.6125 150.3125 182.875 C147.875 185.375 147.875 185.375 144.125 185.6875 C143.0525 185.584375 141.98 185.48125 140.875 185.375 C139.555 183.065 138.235 180.755 136.875 178.375 C134.93701737 181.14760299 134.93701737 181.14760299 133.875 183.375 C128.3226913 184.25168032 124.84061633 182.10107345 120.32421875 179.19140625 C113.30773485 173.98779379 109.13236859 166.84527041 104.76953125 159.42578125 C102.96875128 156.52596855 101.16764277 153.90433262 98.875 151.375 C95.57551532 150.79152433 95.57551532 150.79152433 92.875 152.375 Z M65.8828125 279.87890625 C64.63894775 280.20415283 63.39508301 280.52939941 62.11352539 280.86450195 C61.11121384 281.12682114 61.11121384 281.12682114 60.08865356 281.3944397 C19.65248193 291.9080452 -20.44556372 296.64444122 -62.125 298.375 C-62.16540132 309.54970629 -62.13737618 320.7056536 -61.75 331.875 C-61.7190625 333.05191406 -61.688125 334.22882813 -61.65625 335.44140625 C-61.61757813 336.56417969 -61.57890625 337.68695313 -61.5390625 338.84375 C-61.5076416 339.83826172 -61.4762207 340.83277344 -61.44384766 341.85742188 C-61.2841062 344.61924896 -61.2841062 344.61924896 -59.125 347.375 C-57.37071922 348.34058103 -57.37071922 348.34058103 -55.30078125 349.0234375 C-54.52758545 349.30388916 -53.75438965 349.58434082 -52.95776367 349.87329102 C-52.12607666 350.16260498 -51.29438965 350.45191895 -50.4375 350.75 C-49.57680908 351.05671631 -48.71611816 351.36343262 -47.8293457 351.67944336 C-45.26483577 352.58863332 -42.69545406 353.48278052 -40.125 354.375 C-38.85149708 354.82663849 -37.57805243 355.27844136 -36.3046875 355.73046875 C-29.14546155 358.20496631 -21.94452444 360.25228351 -14.625 362.1875 C-2.91122369 365.28838663 8.51938936 369.15308796 19.875 373.375 C20.77081787 373.66600586 21.66663574 373.95701172 22.58959961 374.25683594 C24.875 375.375 24.875 375.375 26.1875 379 C26.414375 380.11375 26.64125 381.2275 26.875 382.375 C35.67205092 382.75564163 44.18663005 381.58231692 52.875 380.375 C52.93445801 379.25472412 52.93445801 379.25472412 52.99511719 378.11181641 C53.18522603 374.73974767 53.40472375 371.3702267 53.625 368 C53.7178125 366.2365625 53.7178125 366.2365625 53.8125 364.4375 C53.92851562 362.75527344 53.92851562 362.75527344 54.046875 361.0390625 C54.1097168 360.00217285 54.17255859 358.9652832 54.23730469 357.89697266 C54.875 355.375 54.875 355.375 56.69238281 354.06005859 C59.71474544 353.11142889 62.73457628 352.73735658 65.875 352.375 C67.09632932 349.28876228 67.09632932 349.28876228 66.75 345.5 C66.70763134 341.66563666 67.3256995 339.37953274 69.875 336.375 C73.86364884 334.45453945 79.57480824 334.76594734 83.81958008 335.88989258 C85.72490589 336.5944183 87.57959314 337.36629352 89.4375 338.1875 C90.05818359 338.44853516 90.67886719 338.70957031 91.31835938 338.97851562 C93.1769158 339.76341172 95.0261221 340.56760636 96.875 341.375 C98.19621838 341.94232983 99.51781686 342.50877552 100.83984375 343.07421875 C101.84144531 343.50347656 102.84304688 343.93273437 103.875 344.375 C104.61856022 342.04517799 105.27123998 339.74226049 105.875 337.375 C106.19017578 336.27478516 106.19017578 336.27478516 106.51171875 335.15234375 C107.03961219 332.69024876 107.27490534 330.86774327 106.875 328.375 C105.16458705 326.23472136 103.30061306 324.75567664 101.125 323.09375 C87.97740693 313.05044974 79.99558723 293.7367617 74.875 278.375 C71.58677603 278.375 69.06113562 279.03108703 65.8828125 279.87890625 Z M346.4375 288.01953125 C345.52154053 288.18998459 344.60558105 288.36043793 343.66186523 288.53605652 C339.7743759 289.25968915 335.88923922 289.99560525 332.00390625 290.73071289 C295.22197474 297.66516654 295.22197474 297.66516654 280.203125 297.4375 C265.136443 296.52344813 265.136443 296.52344813 251.39794922 301.12792969 C247.73678581 305.53556309 246.0927686 310.51856706 244.61230469 315.98730469 C243.51304615 319.54715517 241.71794601 322.25654141 239.6875 325.375 C237.97010877 327.98915752 237.97010877 327.98915752 236.875 330.375 C237.205 331.365 237.535 332.355 237.875 333.375 C240.35 330.9 240.35 330.9 242.875 328.375 C243.535 328.705 244.195 329.035 244.875 329.375 C246.545625 329.3440625 246.545625 329.3440625 248.25 329.3125 C253.33595718 329.40018892 253.33595718 329.40018892 255.875 331.375 C257.84501453 335.29392176 258.11845323 338.52082152 258.0625 342.875 C258.05605469 343.9784375 258.04960938 345.081875 258.04296875 346.21875 C257.875 349.375 257.875 349.375 257.30078125 351.96875 C256.8149095 354.714594 257.18556981 356.6938826 257.875 359.375 C264.74534933 359.65350405 264.74534933 359.65350405 270.77734375 356.87890625 C271.88697389 355.53052929 272.96316633 354.15421405 274.01171875 352.7578125 C287.00908111 336.13644763 307.94278079 326.88899595 326.21582031 317.40258789 C331.35436848 314.72637849 336.42954945 311.97557046 341.4375 309.0625 C346.73896908 305.98054549 352.12718895 303.17876044 357.64453125 300.50390625 C359.79068621 299.56317492 359.79068621 299.56317492 360.875 298.375 C361.10927778 296.35905418 361.28836124 294.336526 361.4375 292.3125 C361.56318359 290.65541016 361.56318359 290.65541016 361.69140625 288.96484375 C361.75199219 288.11019531 361.81257812 287.25554687 361.875 286.375 C356.53601397 286.14731431 351.65071661 287.01867767 346.4375 288.01953125 Z M351.5 320.875 C350.87496582 321.23811279 350.24993164 321.60122559 349.60595703 321.9753418 C345.60982148 324.31037228 341.67376718 326.73260421 337.75 329.1875 C333.09925466 332.08924709 328.37285024 334.7542359 323.54443359 337.34887695 C314.16756602 342.38857006 305.1860039 347.68766905 296.875 354.375 C296.875 354.705 296.875 355.035 296.875 355.375 C309.66451924 354.87499244 322.14354156 352.70590285 334.75 350.625 C337.00794124 350.25718474 339.26599921 349.89008544 341.52416992 349.52368164 C345.97495834 348.8012747 350.4253635 348.07658079 354.87548828 347.35009766 C362.30799275 346.13917338 369.74625243 344.96841713 377.1875 343.8125 C378.38189697 343.62550537 379.57629395 343.43851074 380.80688477 343.24584961 C387.7326448 342.16396917 394.66121164 341.10324461 401.59260559 340.05815125 C405.75819245 339.42892652 409.92287839 338.79385186 414.0874939 338.15823364 C416.14194384 337.84626693 418.19681325 337.5370493 420.25210571 337.23068237 C423.12357138 336.80249087 425.99350032 336.36510172 428.86328125 335.92578125 C429.73041748 335.79887909 430.59755371 335.67197693 431.4909668 335.54122925 C432.28970215 335.41716705 433.0884375 335.29310486 433.91137695 335.1652832 C434.60761673 335.0604512 435.30385651 334.9556192 436.02119446 334.84761047 C438.19200048 334.40341432 438.19200048 334.40341432 440.875 332.375 C428.96174551 328.05788703 417.85931961 325.56543221 405.125 325 C397.6479259 324.65993482 390.32776267 323.66934536 382.9375 322.5 C381.89561523 322.33838379 380.85373047 322.17676758 379.78027344 322.01025391 C373.99735478 321.05997871 368.49824152 319.79634037 362.93139648 317.95654297 C358.20049969 316.61865906 355.4539437 318.53476831 351.5 320.875 Z M84.875 352.375 C83.88340403 355.46120801 83.87684148 357.27994381 84.87890625 360.3515625 C85.12213623 361.10066895 85.36536621 361.84977539 85.6159668 362.62158203 C85.88707275 363.40645996 86.15817871 364.19133789 86.4375 365 C86.71053955 365.80163574 86.9835791 366.60327148 87.26489258 367.42919922 C89.36253613 373.3718216 91.60966256 379.61980588 95.875 384.375 C96.865 384.375 97.855 384.375 98.875 384.375 C99.205 385.365 99.535 386.355 99.875 387.375 C102.515 387.705 105.155 388.035 107.875 388.375 C108.33066748 383.68430531 106.72063788 380.28869506 104.6875 376.1875 C104.36869873 375.52838623 104.04989746 374.86927246 103.72143555 374.19018555 C103.07893225 372.86561793 102.43226483 371.54306132 101.78125 370.22265625 C100.98259328 368.59436043 100.20811801 366.95425142 99.4375 365.3125 C96.6757752 359.51287791 94.1544696 354.80576243 87.875 352.375 C86.885 352.375 85.895 352.375 84.875 352.375 Z M237.875 351.375 C233.70511547 355.01506391 231.21895662 359.47777084 228.4375 364.1875 C225.77352946 368.66932561 223.13755438 373.09392351 220.03515625 377.2890625 C217.66038113 380.09823082 217.66038113 380.09823082 217.75 382.9375 C219.83196691 387.4484283 222.76788209 390.63692139 226.875 393.375 C228.195 393.375 229.515 393.375 230.875 393.375 C232.31636505 389.73068316 233.75237392 386.08427775 235.1875 382.4375 C235.79368164 380.90512695 235.79368164 380.90512695 236.41210938 379.34179688 C237.58414259 376.35930584 238.73708424 373.37066483 239.875 370.375 C240.19984375 369.52147949 240.5246875 368.66795898 240.859375 367.78857422 C242.31745426 363.73770079 243.40129182 360.67315614 242.25 356.375 C241.98316406 355.26125 241.98316406 355.26125 241.7109375 354.125 C241.29714844 353.25875 241.29714844 353.25875 240.875 352.375 C239.885 352.045 238.895 351.715 237.875 351.375 Z M65.875 366.375 C65.545 367.591875 65.215 368.80875 64.875 370.0625 C64.689375 370.74699219 64.50375 371.43148438 64.3125 372.13671875 C63.71513975 374.81275012 63.71513975 374.81275012 63.875 379.375 C69.815 378.88 69.815 378.88 75.875 378.375 C75.400625 376.60125 74.92625 374.8275 74.4375 373 C74.03724609 371.50339844 74.03724609 371.50339844 73.62890625 369.9765625 C72.97315644 367.42082299 72.97315644 367.42082299 71.875 365.375 C69.71865964 365.375 67.95053648 365.8215236 65.875 366.375 Z M-78.50048828 375.91455078 C-80.69668694 377.8889512 -83.07639621 379.47620288 -85.5625 381.0625 C-86.26246094 381.52011719 -86.96242188 381.97773438 -87.68359375 382.44921875 C-88.15925781 382.75472656 -88.63492188 383.06023437 -89.125 383.375 C-85.85224356 384.38823413 -83.13877703 384.3898724 -79.7331543 384.13720703 C-78.65490891 384.06027618 -77.57666351 383.98334534 -76.46574402 383.90408325 C-75.30529068 383.8145639 -74.14483734 383.72504456 -72.94921875 383.6328125 C-71.75069778 383.54498505 -70.55217682 383.45715759 -69.31733704 383.3666687 C-66.78107695 383.17958589 -64.24504333 382.98941119 -61.70922852 382.79638672 C-57.83852784 382.50197969 -53.96722745 382.21694212 -50.09570312 381.93359375 C-47.6301673 381.7505519 -45.16467108 381.56697561 -42.69921875 381.3828125 C-41.5448381 381.29734161 -40.39045746 381.21187073 -39.20109558 381.12380981 C-33.80531381 380.71090365 -28.4686946 380.23541318 -23.125 379.375 C-25.90079652 377.87499396 -28.43059949 376.95694949 -31.51171875 376.296875 C-32.35911621 376.10738281 -33.20651367 375.91789062 -34.07958984 375.72265625 C-35.93492715 375.31691516 -37.79073982 374.91334294 -39.64697266 374.51171875 C-44.24115447 373.46840294 -48.49138738 372.34142796 -52.76171875 370.328125 C-64.45387482 364.8515313 -69.23602454 367.28301368 -78.50048828 375.91455078 Z M121.875 570.375 C122.875 574.375 122.875 574.375 122.875 574.375 Z M137.875 572.375 C135.88724279 578.86250494 133.91223623 585.35380501 131.9453125 591.84765625 C131.21337191 594.25985461 130.47887683 596.67127893 129.7421875 599.08203125 C128.61268189 602.7817384 127.49295104 606.48428719 126.375 610.1875 C126.01277344 611.36739502 125.65054687 612.54729004 125.27734375 613.76293945 C124.94863281 614.85823975 124.61992187 615.95354004 124.28125 617.08203125 C123.98541016 618.0563208 123.68957031 619.03061035 123.38476562 620.03442383 C122.61714586 622.3820497 122.61714586 622.3820497 123.875 624.375 C129.03578753 618.9023824 133.61751674 613.13676132 138.125 607.125 C143.14352006 600.45124104 148.45210999 594.24113313 154.21875 588.20703125 C159.72994582 582.88185246 159.72994582 582.88185246 162.1875 576 C162.0328125 574.700625 162.0328125 574.700625 161.875 573.375 C156.95997242 572.08264285 152.10209898 572.26364483 147.0625 572.3125 C145.73702148 572.31926758 145.73702148 572.31926758 144.38476562 572.32617188 C142.21481441 572.33790134 140.04489828 572.35583505 137.875 572.375 Z M171.875 573.375 C172.02491211 577.26590076 172.48648063 580.72236509 173.875 584.375 C176.79989372 586.97561203 180.23525255 588.03404041 183.875 589.375 C185.91061431 590.23381518 187.93292417 591.11961632 189.95458984 592.01074219 C191.32459136 592.61307318 192.69846966 593.20668861 194.07666016 593.79003906 C198.54581513 595.69667135 202.69429235 597.89694112 206.875 600.375 C201.6651431 586.28025951 201.6651431 586.28025951 192.875 574.375 C186.22956294 571.65962018 178.85100655 572.40545665 171.875 573.375 Z M207.875 573.375 C211.14908894 579.41023728 214.43993514 585.42969543 217.875 591.375 C219.23449488 587.29651537 218.01986103 584.19819055 216.9375 580.1875 C216.64456055 579.06311523 216.64456055 579.06311523 216.34570312 577.91601562 C215.86285625 576.06706541 215.36989367 574.22076224 214.875 572.375 C212.53640564 572.375 210.17469577 572.98356242 207.875 573.375 Z M120.875 575.375 C121.875 578.375 121.875 578.375 121.875 578.375 Z " fill="#000000" transform="translate(360.125,68.625)"/>
<path d="M0 0 C9.12530444 7.62796346 15.1704579 17.59103486 21.6484375 27.421875 C25.30289865 32.94759638 29.2712428 38.09586958 33.5234375 43.171875 C34.17183594 43.97882813 34.82023438 44.78578125 35.48828125 45.6171875 C36.13925781 46.39835937 36.79023437 47.17953125 37.4609375 47.984375 C38.02683594 48.67144531 38.59273437 49.35851562 39.17578125 50.06640625 C45.41114642 55.65852244 52.59977731 58.00870211 60.5859375 59.984375 C75.18952613 63.91422291 89.9638023 69.24444396 98.13671875 82.859375 C103.43395781 93.12557352 104.37936752 104.49015566 101.65234375 115.77734375 C100.47805799 118.75348438 99.15627336 121.42249842 97.5234375 124.171875 C97.07355469 124.94402344 96.62367188 125.71617187 96.16015625 126.51171875 C88.11933786 138.33400728 72.5254531 147.90493097 58.65898132 150.79780579 C51.3732192 152.07400498 44.03939049 152.31128845 36.66015625 152.34765625 C34.78319227 152.37088387 32.90623915 152.39500233 31.02929688 152.41992188 C28.13851931 152.45465687 25.24813636 152.48419997 22.35717773 152.49780273 C9.04980164 152.57227363 -3.29712555 153.96983534 -16.30728149 156.73446655 C-20.64541126 157.60919629 -25.00733566 158.06996329 -29.4140625 158.421875 C-30.27829834 158.49631836 -31.14253418 158.57076172 -32.03295898 158.64746094 C-55.3796802 160.53345014 -74.63757221 157.15167793 -93.203125 141.9375 C-98.41173522 137.37406507 -103.12409576 132.5527727 -107.4765625 127.171875 C-108.29382813 126.16898438 -109.11109375 125.16609375 -109.953125 124.1328125 C-120.18127177 111.35188998 -124.33386712 101.57606912 -123.4765625 85.171875 C-122.31616061 76.13234425 -118.01306772 70.21043656 -112.4765625 63.171875 C-111.12764085 60.4740317 -111.06562705 57.98509629 -110.7265625 54.984375 C-108.03459216 35.64573514 -99.78056875 16.98360925 -84.15185547 4.79321289 C-60.44453277 -12.86251957 -25.16250572 -18.57421558 0 0 Z M-80.4765625 27.171875 C-81.50312497 28.48486673 -82.51211348 29.81260466 -83.4765625 31.171875 C-83.1465625 31.831875 -82.8165625 32.491875 -82.4765625 33.171875 C-82.04988281 32.8109375 -81.62320313 32.45 -81.18359375 32.078125 C-75.74618465 28.04211 -71.20074802 27.61346085 -64.52734375 27.60546875 C-60.79969725 28.2975414 -59.14956023 29.5176023 -56.4765625 32.171875 C-53.26404519 36.93188541 -53.70832462 42.68638699 -54.4765625 48.171875 C-56.46864452 53.21390328 -59.28756522 56.98287772 -63.1015625 60.796875 C-68.24406251 62.8919676 -73.00906605 63.03780049 -78.4765625 62.171875 C-80.89064548 61.07490962 -82.84597512 59.865992 -84.953125 58.265625 C-86.43476927 56.97747274 -86.43476927 56.97747274 -88.4765625 57.171875 C-93.99835539 66.28551376 -95.87628383 74.75618561 -97.20361328 85.19360352 C-97.45071898 86.98456729 -97.79234367 88.7618609 -98.14453125 90.53515625 C-98.54118632 93.68506413 -97.75287811 94.9629071 -95.86328125 97.44921875 C-95.40566406 98.01769531 -94.94804688 98.58617187 -94.4765625 99.171875 C-93.88488281 99.95691406 -93.29320312 100.74195313 -92.68359375 101.55078125 C-90.13864322 104.90819049 -90.13864322 104.90819049 -87.4765625 108.171875 C-87.1465625 108.171875 -86.8165625 108.171875 -86.4765625 108.171875 C-86.43401894 106.17232754 -86.43575467 104.17145864 -86.4765625 102.171875 C-86.8065625 101.841875 -87.1365625 101.511875 -87.4765625 101.171875 C-88.49800359 87.44134954 -88.49800359 87.44134954 -84.4765625 82.171875 C-78.40609326 77.65793634 -71.81145826 77.56244746 -64.4765625 78.171875 C-61.39905163 79.42800189 -60.06498588 80.18738235 -58.37646484 83.01245117 C-56.82454235 86.73647572 -57.10766921 90.49974978 -57.1015625 94.484375 C-57.07707031 95.31388672 -57.05257812 96.14339844 -57.02734375 96.99804688 C-56.99939207 102.90050908 -58.01677373 106.3568982 -61.4765625 111.171875 C-67.34258193 114.83813714 -73.68778484 114.84859987 -80.4765625 115.171875 C-77.40463512 119.40144989 -74.07458873 122.26138741 -69.8515625 125.234375 C-69.23273193 125.67193115 -68.61390137 126.1094873 -67.97631836 126.56030273 C-54.66472268 135.72699105 -41.08626604 136.40285774 -25.48217773 133.80078125 C-7.23276846 130.79868031 10.94538035 130.6575277 29.40991211 130.67602539 C48.08620064 130.62194422 61.03653307 128.59853342 74.7578125 114.94921875 C80.00624457 109.2169296 80.00624457 109.2169296 81.4609375 101.859375 C79.78521608 95.26820407 76.67061077 91.63783153 70.9609375 87.984375 C63.95975104 84.10395201 56.60087638 81.90232858 48.8515625 80.02734375 C37.09585005 77.16299018 29.02663143 74.14746859 20.5234375 65.171875 C18.86781873 63.82484789 17.20250693 62.48955531 15.5234375 61.171875 C15.50925781 62.25726563 15.49507812 63.34265625 15.48046875 64.4609375 C15.43354168 65.90629113 15.38529445 67.35160231 15.3359375 68.796875 C15.32723633 69.86615234 15.32723633 69.86615234 15.31835938 70.95703125 C15.084304 76.62637254 13.61983734 79.22719367 9.5234375 83.171875 C4.13491688 84.96804854 -2.51978272 85.51268208 -7.78515625 83.125 C-10.20604336 81.41377002 -12.1363242 79.8523516 -13.4765625 77.171875 C-13.62785802 74.38745545 -13.70794679 71.64475013 -13.7265625 68.859375 C-13.7471875 68.09947266 -13.7678125 67.33957031 -13.7890625 66.55664062 C-13.82130866 61.91722486 -13.45739673 58.95140166 -10.4765625 55.171875 C-4.88700934 50.90616338 1.83978025 51.90413205 8.5234375 52.171875 C-5.93107444 25.24867204 -5.93107444 25.24867204 -30.4765625 9.171875 C-50.05541001 4.46663584 -66.93318855 13.48742424 -80.4765625 27.171875 Z M-84.4765625 33.171875 C-85.31505054 34.62725068 -86.14720184 36.08627873 -86.9765625 37.546875 C-87.440625 38.35898438 -87.9046875 39.17109375 -88.3828125 40.0078125 C-89.62692109 42.06524374 -89.62692109 42.06524374 -89.4765625 44.171875 C-88.4865625 44.171875 -87.4965625 44.171875 -86.4765625 44.171875 C-85.4865625 40.541875 -84.4965625 36.911875 -83.4765625 33.171875 C-83.8065625 33.171875 -84.1365625 33.171875 -84.4765625 33.171875 Z M-75.4765625 42.171875 C-75.8065625 43.161875 -76.1365625 44.151875 -76.4765625 45.171875 C-73.66146257 47.4492251 -73.66146257 47.4492251 -70.4765625 47.171875 C-68.27513918 44.7328044 -68.27513918 44.7328044 -66.4765625 42.171875 C-67.1365625 40.851875 -67.7965625 39.531875 -68.4765625 38.171875 C-71.66800812 38.171875 -73.17495636 40.10633103 -75.4765625 42.171875 Z M-1.4765625 64.171875 C-2.4665625 65.656875 -2.4665625 65.656875 -3.4765625 67.171875 C-1.0015625 67.666875 -1.0015625 67.666875 1.5234375 68.171875 C1.1934375 66.851875 0.8634375 65.531875 0.5234375 64.171875 C-0.1365625 64.171875 -0.7965625 64.171875 -1.4765625 64.171875 Z M-76.2890625 91.546875 C-77.6732347 93.10556283 -77.6732347 93.10556283 -77.4765625 95.171875 C-75.4965625 96.161875 -73.5165625 97.151875 -71.4765625 98.171875 C-69.3246188 94.94395945 -69.27569807 93.88786691 -69.4765625 90.171875 C-73.14927294 89.84351844 -73.14927294 89.84351844 -76.2890625 91.546875 Z " fill="#000000" transform="translate(741.4765625,154.828125)"/>
<path d="M0 0 C1.43082697 -0.0155402 2.86160203 -0.0372119 4.29223633 -0.06536865 C6.30340434 -0.10122536 8.31505368 -0.10586841 10.32653809 -0.10946655 C12.0707605 -0.12179321 12.0707605 -0.12179321 13.85021973 -0.1343689 C17.84258507 0.4617748 19.98368443 1.82962494 23.10388184 4.35147095 C25.90151881 9.28847738 26.46628053 13.23153621 26.35388184 18.85147095 C26.34147461 19.56271118 26.32906738 20.27395142 26.31628418 21.00674438 C26.26476219 23.45586033 26.18500598 25.90316253 26.10388184 28.35147095 C26.07777832 29.32535767 26.0516748 30.29924438 26.02478027 31.30264282 C25.93969566 34.40285243 25.8376865 37.50200833 25.72888184 40.60147095 C25.68295898 42.08357056 25.68295898 42.08357056 25.6361084 43.59561157 C25.22634533 53.42315233 25.22634533 53.42315233 23.10388184 56.35147095 C17.57145701 58.75796363 12.47489139 59.96452331 6.50622559 60.63272095 C5.28494209 60.78052002 5.28494209 60.78052002 4.03898621 60.93130493 C1.37431583 61.24942011 -1.29187733 61.55124381 -3.95861816 61.85147095 C-4.88482971 61.95918823 -5.81104126 62.06690552 -6.76531982 62.17788696 C-20.70132538 63.79802696 -34.63946045 65.04443457 -48.63439941 66.01544189 C-64.1520468 67.09595859 -79.56957442 68.80947952 -95.00500488 70.72647095 C-121.48089006 73.96733525 -121.48089006 73.96733525 -126.71765137 70.46377563 C-133.28537636 64.0955187 -131.9336229 48.3674095 -132.09924316 39.82022095 C-132.11492459 37.8365204 -132.13053508 35.85280307 -132.13635254 33.86904907 C-132.14623979 31.82634385 -132.17746501 29.78457428 -132.20861816 27.74209595 C-132.21377441 26.4478772 -132.21893066 25.15365845 -132.22424316 23.82022095 C-132.23358887 22.64910767 -132.24293457 21.47799438 -132.25256348 20.27139282 C-131.89611816 17.35147095 -131.89611816 17.35147095 -130.79846191 15.50796509 C-127.97069866 13.78887955 -125.41726063 13.69511183 -122.13049316 13.3788147 C-120.67638919 13.22415252 -119.22262751 13.06624908 -117.76916504 12.90567017 C-116.98372314 12.82016907 -116.19828125 12.73466797 -115.38903809 12.64657593 C-110.92209622 12.11779168 -106.48159355 11.41754927 -102.03674316 10.7303772 C-100.09081181 10.43288466 -98.14484763 10.13560683 -96.19885254 9.83853149 C-95.20973877 9.68717743 -94.220625 9.53582336 -93.20153809 9.37988281 C-75.77928904 6.72321605 -58.39134105 4.23251882 -40.83557129 2.62783813 C-37.96150452 2.35761857 -35.09359163 2.05033052 -32.22424316 1.73428345 C-21.49425287 0.60279123 -10.78456151 0.10904891 0 0 Z M-24.02111816 16.03897095 C-24.86508148 16.07859955 -25.7090448 16.11822815 -26.57858276 16.15905762 C-44.41757432 17.01870618 -62.22006719 18.35242546 -80.02388763 19.74341202 C-82.20855195 19.91396578 -84.39330278 20.08337766 -86.57806396 20.25268555 C-90.7014611 20.57303553 -94.82422419 20.90086346 -98.94689941 21.2303772 C-100.19617722 21.32825531 -101.44545502 21.42613342 -102.73258972 21.52697754 C-104.45769524 21.66741989 -104.45769524 21.66741989 -106.21765137 21.81069946 C-107.72426079 21.93155663 -107.72426079 21.93155663 -109.26130676 22.05485535 C-111.56266737 22.31393251 -113.67204833 22.7211944 -115.89611816 23.35147095 C-115.5854649 26.99746405 -115.27225392 30.64323329 -114.95861816 34.28897095 C-114.87160645 35.31055298 -114.78459473 36.33213501 -114.69494629 37.38467407 C-114.17734119 43.38505909 -113.58859733 49.36870048 -112.89611816 55.35147095 C-102.89038699 54.78023632 -92.96703558 53.87431273 -83.01141357 52.7387085 C-70.2741633 51.28821694 -57.54591714 50.04473861 -44.76260376 49.08383179 C-32.18482945 48.13068209 -19.73449614 46.8102747 -7.27111816 44.85147095 C-6.59865051 44.74964508 -5.92618286 44.64781921 -5.2333374 44.54290771 C-3.355507 44.25475978 -1.4811379 43.94431685 0.39294434 43.63272095 C1.45207031 43.45805298 2.51119629 43.28338501 3.60241699 43.10342407 C6.43788456 42.54070186 6.43788456 42.54070186 8.10388184 39.35147095 C8.47084365 36.83644918 8.47084365 36.83644918 8.51794434 34.0272522 C8.55661621 32.99922485 8.59528809 31.97119751 8.63513184 30.91201782 C8.66606934 29.84016235 8.69700684 28.76830688 8.72888184 27.66397095 C8.76755371 26.58051392 8.80622559 25.49705688 8.84606934 24.38076782 C8.94038692 21.70450628 9.02598189 19.02825252 9.10388184 16.35147095 C-1.65262718 14.08694273 -13.11370111 15.52241106 -24.02111816 16.03897095 Z " fill="#000000" transform="translate(300.8961181640625,194.64852905273438)"/>
<path d="M0 0 C2.13032729 -0.00219697 4.26014388 -0.02045065 6.39038086 -0.03930664 C24.32307749 -0.11692379 24.32307749 -0.11692379 28.77832031 3.61962891 C30.52529554 5.74027099 30.40640123 7.09992255 30.31811523 9.81030273 C30.30264648 10.60694336 30.28717773 11.40358398 30.27124023 12.22436523 C30.06811523 14.18530273 30.06811523 14.18530273 29.06811523 15.18530273 C26.13835783 15.24958546 23.23146469 15.25116598 20.30249023 15.21264648 C18.44181528 15.19995997 16.58113807 15.1876022 14.72045898 15.17553711 C11.80323097 15.15111808 8.88612389 15.12360112 5.96899414 15.08935547 C-7.79991735 14.9379046 -21.25375908 15.59833981 -34.93188477 17.18530273 C-35.79759094 17.28423828 -36.66329712 17.38317383 -37.55523682 17.48510742 C-40.67955773 17.84323029 -43.80345803 18.2030516 -46.92506409 18.58418274 C-54.47579988 19.50001538 -61.59515523 19.34659861 -69.11938477 18.18530273 C-88.94498059 15.58575257 -111.82659619 14.61543997 -130.68969727 22.31030273 C-133.80134362 23.52460375 -136.62843595 23.31484975 -139.93188477 23.18530273 C-140.55688477 20.56030273 -140.55688477 20.56030273 -139.93188477 17.18530273 C-124.63321098 3.40636476 -99.60891912 4.97278104 -80.54196167 5.26321411 C-62.09779264 5.52169347 -44.54042752 5.21596616 -26.40380859 1.64208984 C-17.66460108 0.02717061 -8.85778007 -0.00102131 0 0 Z " fill="#000000" transform="translate(305.931884765625,170.814697265625)"/>
<path d="M0 0 C1.48563446 -0.00117828 1.48563446 -0.00117828 3.00128174 -0.00238037 C20.28425675 0.01374085 37.45845914 0.92966286 54.6875 2.25 C55.8348764 2.33695129 56.98225281 2.42390259 58.16439819 2.51348877 C61.4412794 2.76675521 64.71684481 3.03229769 67.9921875 3.3046875 C68.95589767 3.38189026 69.91960785 3.45909302 70.91252136 3.53863525 C85.4750281 4.8166854 85.4750281 4.8166854 90.8125 8.375 C91.20757893 12.72086828 91.26581002 14.69503497 88.8125 18.375 C86.76177979 18.75595093 86.76177979 18.75595093 84.19628906 18.76318359 C83.23109848 18.77251419 82.2659079 18.78184479 81.27146912 18.79145813 C79.69076378 18.78253792 79.69076378 18.78253792 78.078125 18.7734375 C76.43898888 18.77944221 76.43898888 18.77944221 74.76673889 18.78556824 C71.1983974 18.79144985 67.6307688 18.77239443 64.0625 18.75 C62.24726334 18.74551346 62.24726334 18.74551346 60.39535522 18.74093628 C43.06130006 18.69037027 26.20774996 17.80777357 9.00244141 15.72558594 C-8.65700295 13.78475002 -26.10766255 14.48590016 -43.7578125 15.90234375 C-48.59321404 16.28165942 -53.33921908 16.5705908 -58.1875 16.375 C-59.1875 15.375 -59.1875 15.375 -59.625 13.0625 C-59.1875 10.375 -59.1875 10.375 -56.62109375 8.33984375 C-52.99297804 6.26368652 -49.86927475 5.22922149 -45.8125 4.25 C-44.56726563 3.93804687 -43.32203125 3.62609375 -42.0390625 3.3046875 C-28.07336971 0.42672143 -14.20650785 -0.0240753 0 0 Z " fill="#000000" transform="translate(247.1875,302.625)"/>
<path d="M0 0 C1.28026566 0.05853653 1.28026566 0.05853653 2.58639526 0.11825562 C5.04124588 0.2335957 7.49517658 0.3608645 9.94921875 0.4921875 C10.67526306 0.52563766 11.40130737 0.55908783 12.14935303 0.59355164 C24.48982008 1.30232008 24.48982008 1.30232008 27.3125 4.125 C27.41073937 5.78929051 27.44223631 7.45781931 27.4375 9.125 C27.44007813 10.0325 27.44265625 10.94 27.4453125 11.875 C27.3125 14.125 27.3125 14.125 26.3125 15.125 C24.72313566 15.19419046 23.1306261 15.19258422 21.54003906 15.16259766 C20.52097473 15.14572906 19.5019104 15.12886047 18.45196533 15.11148071 C17.33859802 15.0875827 16.22523071 15.06368469 15.078125 15.0390625 C13.36190948 15.00720352 13.36190948 15.00720352 11.61102295 14.97470093 C9.17634356 14.92829791 6.74171142 14.87935914 4.30712891 14.828125 C0.6202119 14.75120406 -3.06678556 14.6835329 -6.75390625 14.6171875 C-9.12240687 14.57087335 -11.49089691 14.52401462 -13.859375 14.4765625 C-14.94845154 14.45671295 -16.03752808 14.4368634 -17.15960693 14.41641235 C-22.57068791 14.29777136 -27.92652416 14.04375312 -33.31884766 13.5703125 C-39.09348866 13.09823019 -44.64431117 13.20628145 -50.4140625 13.6484375 C-51.84557144 13.74688461 -51.84557144 13.74688461 -53.30599976 13.84732056 C-56.3088662 14.05606415 -59.31059617 14.27788821 -62.3125 14.5 C-64.32806615 14.64146601 -66.34369112 14.78209653 -68.359375 14.921875 C-75.70655138 15.43792157 -83.0479598 15.96252287 -90.37988281 16.66601562 C-94.61995301 17.05722608 -98.80936611 17.25363686 -103.0703125 17.2578125 C-104.33875 17.25910156 -105.6071875 17.26039063 -106.9140625 17.26171875 C-108.20054687 17.25785156 -109.48703125 17.25398438 -110.8125 17.25 C-112.1510426 17.25357031 -113.48958436 17.2574746 -114.828125 17.26171875 C-116.08367187 17.26042969 -117.33921875 17.25914062 -118.6328125 17.2578125 C-119.77250488 17.25668457 -120.91219727 17.25555664 -122.08642578 17.25439453 C-124.6875 17.125 -124.6875 17.125 -125.6875 16.125 C-125.72813832 14.45882885 -125.730221 12.79111905 -125.6875 11.125 C-116.15557075 8.54100188 -106.54544238 6.73263028 -96.8125 5.125 C-95.63797775 4.93040192 -95.63797775 4.93040192 -94.43972778 4.73187256 C-62.77797488 -0.47158097 -32.00628721 -1.52185032 0 0 Z " fill="#000000" transform="translate(305.6875,276.875)"/>
<path d="M0 0 C1.2890625 -0.0309375 2.578125 -0.061875 3.90625 -0.09375 C8.32564118 0.63641028 9.72870572 2.06690411 12.5 5.5 C14.17387623 8.84775246 13.72672443 12.57246047 13.75 16.25 C13.770625 17.04921875 13.79125 17.8484375 13.8125 18.671875 C13.84566487 23.71293511 13.27761475 27.12458259 10.5 31.5 C5.86557039 35.69995183 1.3688287 35.77432092 -4.6328125 35.7265625 C-9.5504703 35.33797374 -13.93776268 34.06223732 -17.5 30.5 C-18.07412542 21.74458734 -17.96468872 10.72075723 -12.5 3.5 C-8.48366375 0.27561738 -5.07026334 0.04056211 0 0 Z M-2.5 12.5 C-4.71168225 15.44236782 -4.71168225 15.44236782 -6.5 18.5 C-4.52 19.49 -4.52 19.49 -2.5 20.5 C-0.89585785 19.31476003 -0.89585785 19.31476003 0.5 17.5 C0.75069913 14.87429296 0.75069913 14.87429296 0.5 12.5 C-0.49 12.5 -1.48 12.5 -2.5 12.5 Z " fill="#000000" transform="translate(711.5,176.5)"/>
<path d="M0 0 C4.31305342 1.58662007 6.0519587 3.41985809 7.97265625 7.4921875 C8.40625 10.8671875 8.40625 10.8671875 8.41015625 14.4921875 C8.43916016 16.2865625 8.43916016 16.2865625 8.46875 18.1171875 C7.88897918 22.06145513 6.74380528 23.68491548 3.97265625 26.4921875 C0.55438878 28.20132123 -3.26089138 27.67677229 -7.02734375 27.6796875 C-7.86007812 27.69193359 -8.6928125 27.70417969 -9.55078125 27.71679688 C-10.74574219 27.71969727 -10.74574219 27.71969727 -11.96484375 27.72265625 C-12.69574219 27.72676514 -13.42664063 27.73087402 -14.1796875 27.73510742 C-16.02734375 27.4921875 -16.02734375 27.4921875 -18.02734375 25.4921875 C-20.08361931 18.98064824 -21.51260282 12.20533518 -18.90234375 5.6796875 C-13.48788001 -0.63718686 -7.87143842 -1.97165124 0 0 Z M-7.02734375 11.4921875 C-7.35734375 12.1521875 -7.68734375 12.8121875 -8.02734375 13.4921875 C-7.03734375 13.1621875 -6.04734375 12.8321875 -5.02734375 12.4921875 C-5.68734375 12.1621875 -6.34734375 11.8321875 -7.02734375 11.4921875 Z " fill="#000000" transform="translate(715.02734375,259.5078125)"/>
<path d="M0 0 C1.625 0.828125 1.625 0.828125 3.875 2.328125 C3.875 5.298125 3.875 8.268125 3.875 11.328125 C2.53695312 11.29332031 2.53695312 11.29332031 1.171875 11.2578125 C0.00140625 11.23976562 -1.1690625 11.22171875 -2.375 11.203125 C-3.53515625 11.17992187 -4.6953125 11.15671875 -5.890625 11.1328125 C-9.04808181 11.32348018 -10.42564193 11.86406639 -13.125 13.328125 C-15.265625 13.5234375 -15.265625 13.5234375 -17.375 13.453125 C-19.23125 13.39125 -19.23125 13.39125 -21.125 13.328125 C-21.73864554 6.08710764 -21.73864554 6.08710764 -18.75 2.390625 C-13.4986355 -1.7354471 -6.3737476 -2.01522902 0 0 Z " fill="#000000" transform="translate(137.125,139.671875)"/>
<path d="M0 0 C2.55184196 1.407731 4.43963069 2.51598013 5.765625 5.16796875 C5.953125 8.16796875 5.953125 8.16796875 5.765625 11.16796875 C3.765625 13.16796875 3.765625 13.16796875 1.70703125 13.43359375 C0.92199219 13.4284375 0.13695312 13.42328125 -0.671875 13.41796875 C-1.84556641 13.42570313 -1.84556641 13.42570313 -3.04296875 13.43359375 C-5.234375 13.16796875 -5.234375 13.16796875 -8.234375 11.16796875 C-10.74334186 10.71195614 -10.74334186 10.71195614 -13.421875 10.54296875 C-14.32292969 10.46820313 -15.22398437 10.3934375 -16.15234375 10.31640625 C-16.83941406 10.26742187 -17.52648437 10.2184375 -18.234375 10.16796875 C-18.46827083 7.3144396 -18.64263754 4.96511884 -18.234375 2.16796875 C-14.03942227 -2.46094461 -5.53487024 -2.06106182 0 0 Z " fill="#000000" transform="translate(178.234375,136.83203125)"/>
<path d="M0 0 C2.57082559 2.92542222 2.2450817 5.31882722 2.0859375 9.1015625 C1.8125 11.0625 1.8125 11.0625 0.8125 12.0625 C-5.89142994 12.46952432 -12.55232822 12.0256701 -19.1875 11.0625 C-20.1875 10.0625 -20.1875 10.0625 -20.28515625 8.21484375 C-20.25260417 6.1640625 -20.22005208 4.11328125 -20.1875 2.0625 C-13.91698132 -2.00486347 -7.02871435 -2.06726893 0 0 Z " fill="#000000" transform="translate(223.1875,128.9375)"/>
<path d="M0 0 C1.546875 0.00580078 1.546875 0.00580078 3.125 0.01171875 C5.95604561 0.30790151 7.63499096 0.7632001 10 2.3125 C11.49297212 5.29844424 11.11755228 8.02103624 11 11.3125 C10.67 11.9725 10.34 12.6325 10 13.3125 C-3.6332574 13.6815205 -3.6332574 13.6815205 -10 11.3125 C-10.390625 5.35546875 -10.390625 5.35546875 -10 3.3125 C-6.95048673 0.07420734 -4.31935106 -0.07018945 0 0 Z " fill="#000000" transform="translate(380,110.6875)"/>
<path d="M0 0 C2.5 1.5 2.5 1.5 4 4 C4.37556739 6.80314789 4.23425233 9.14212162 4 12 C2.41105928 13.58894072 0.75198576 13.16998411 -1.4375 13.1875 C-2.64212891 13.20876953 -2.64212891 13.20876953 -3.87109375 13.23046875 C-6 13 -6 13 -8 11 C-10.57061311 10.35232207 -10.57061311 10.35232207 -13 10 C-13 7.36 -13 4.72 -13 2 C-8.46236032 -0.26881984 -4.98010142 -0.47429537 0 0 Z " fill="#000000" transform="translate(346,115)"/>
<path d="" fill="#000000" transform="translate(0,0)"/>
<path d="" fill="#000000" transform="translate(0,0)"/>
<path d="" fill="#000000" transform="translate(0,0)"/>
<path d="" fill="#000000" transform="translate(0,0)"/>
<path d="" fill="#000000" transform="translate(0,0)"/>
<path d="" fill="#000000" transform="translate(0,0)"/>
<path d="" fill="#000000" transform="translate(0,0)"/>
<path d="" fill="#000000" transform="translate(0,0)"/>
<path d="" fill="#000000" transform="translate(0,0)"/>
<path d="" fill="#000000" transform="translate(0,0)"/>
<path d="" fill="#000000" transform="translate(0,0)"/>
<path d="" fill="#000000" transform="translate(0,0)"/>
<path d="" fill="#000000" transform="translate(0,0)"/>
</svg>
