<?xml version="1.0" standalone="no"?>
<!DOCTYPE svg PUBLIC "-//W3C//DTD SVG 20010904//EN"
 "http://www.w3.org/TR/2001/REC-SVG-20010904/DTD/svg10.dtd">
<svg version="1.0" xmlns="http://www.w3.org/2000/svg"
 width="450.000000pt" height="450.000000pt" viewBox="0 0 450.000000 450.000000"
 preserveAspectRatio="xMidYMid meet">
<metadata>
Created by potrace 1.10, written by Peter Selinger 2001-2011
</metadata>
<g transform="translate(0.000000,450.000000) scale(0.100000,-0.100000)"
fill="#000000" stroke="none">
<path d="M2126 3473 c-19 -37 -62 -77 -70 -65 -9 14 -84 11 -97 -5 -10 -11
-21 -4 -61 39 l-49 53 7 -45 c8 -51 7 -101 -1 -180 -6 -53 -5 -56 29 -89 20
-19 36 -41 36 -48 0 -37 -127 -45 -199 -12 l-45 20 -23 -26 c-13 -14 -31 -25
-39 -25 -22 0 -73 -28 -119 -65 -38 -31 -43 -32 -70 -20 -59 25 -105 100 -105
172 0 52 -10 83 -26 83 -35 0 -44 -91 -19 -195 30 -127 5 -121 -57 13 -43 92
-65 103 -60 31 4 -69 21 -109 73 -178 27 -35 49 -72 49 -81 0 -10 -18 -40 -40
-66 -37 -45 -45 -63 -41 -88 1 -5 -9 -21 -22 -35 -13 -14 -36 -46 -51 -70
l-28 -43 -36 35 c-52 49 -98 70 -136 63 -41 -9 -53 -9 -102 -1 -37 7 -43 4
-62 -20 -34 -43 -29 -65 14 -65 32 0 35 -2 28 -22 -3 -13 -13 -30 -20 -39 -13
-14 -12 -18 2 -29 14 -12 10 -15 -28 -27 -24 -7 -51 -10 -60 -7 -28 8 -22 -23
7 -42 18 -11 37 -15 62 -11 26 5 43 1 62 -12 45 -31 99 -44 161 -37 l57 7 7
-68 c4 -37 8 -80 10 -95 1 -15 26 -60 54 -101 28 -40 47 -78 44 -84 -4 -6 -27
-20 -52 -33 -25 -12 -70 -41 -100 -64 -30 -24 -79 -55 -107 -71 -107 -57 -104
-89 5 -60 34 8 98 33 143 55 46 22 85 38 87 35 3 -3 3 -6 1 -8 -2 -1 -31 -23
-64 -48 -33 -24 -72 -53 -87 -62 -30 -19 -37 -44 -14 -53 24 -9 113 33 189 90
111 84 131 90 222 71 86 -17 133 -19 169 -5 19 7 25 6 23 -3 -1 -9 29 -11 128
-8 l130 3 -22 -23 c-36 -39 -45 -75 -29 -113 10 -25 12 -51 6 -97 -4 -35 -4
-68 0 -72 12 -14 60 15 81 50 21 33 42 42 54 23 5 -8 12 -7 22 1 12 10 16 10
23 -2 7 -11 14 -11 27 -3 15 9 23 4 51 -33 46 -60 55 -56 47 20 -5 51 -3 69
14 102 12 21 21 52 21 68 0 34 -24 83 -47 96 -31 17 0 32 88 43 46 5 89 14 94
18 6 4 35 13 65 19 30 6 67 14 81 17 23 5 27 1 43 -43 28 -78 59 -134 97 -175
65 -69 115 -40 62 35 -41 57 -63 102 -63 128 0 16 11 6 45 -40 47 -63 74 -81
126 -81 39 0 37 16 -10 65 -56 57 -111 145 -111 176 0 21 10 34 49 59 71 45
124 106 118 136 -2 13 0 24 4 24 15 0 38 55 45 108 5 43 28 85 37 71 31 -46
62 -81 80 -90 37 -20 87 -28 119 -18 27 7 37 4 66 -18 28 -21 36 -23 43 -12 5
8 7 19 5 25 -12 32 -17 102 -8 108 6 3 8 15 5 25 -4 16 2 21 31 26 73 14 76
66 3 63 -36 -2 -53 4 -100 36 -59 41 -76 43 -179 20 -37 -8 -36 2 9 92 24 48
34 78 27 82 -5 4 -15 31 -22 61 -7 29 -28 80 -48 112 -44 71 -42 98 16 207 22
40 46 93 55 119 31 90 -10 130 -46 46 -18 -43 -103 -143 -121 -143 -4 0 0 17
9 38 26 61 15 222 -16 222 -17 0 -31 -27 -41 -81 -14 -72 -50 -202 -59 -212
-4 -4 -32 8 -62 28 -50 34 -57 36 -114 32 -174 -15 -275 -26 -285 -32 -6 -4
-22 -4 -35 -1 l-24 6 25 55 c28 60 26 102 -5 144 -17 22 -17 28 -5 57 10 24
11 40 3 63 -14 38 -34 40 -53 4z m24 -72 c-8 -16 -6 -29 11 -62 22 -45 22 -89
-1 -145 -7 -17 -10 -39 -6 -49 6 -16 15 -17 84 -12 42 4 98 9 123 13 37 5 46
3 46 -9 0 -11 -21 -18 -81 -27 -105 -16 -154 -28 -162 -42 -4 -6 -10 -59 -14
-118 -6 -90 -12 -115 -35 -158 -28 -53 -61 -89 -70 -80 -3 3 10 43 30 89 36
86 41 114 26 138 -15 23 -36 6 -84 -66 -46 -70 -111 -143 -126 -143 -5 0 15
36 44 80 36 53 56 94 60 125 8 49 0 96 -18 107 -7 4 -59 5 -117 2 -91 -5 -109
-3 -139 14 -35 19 -60 47 -50 56 3 3 24 -4 46 -15 29 -14 61 -20 105 -20 121
0 150 39 82 113 -33 37 -35 43 -29 87 9 67 9 123 0 150 -6 18 2 13 34 -20 39
-42 42 -43 56 -25 12 16 17 17 30 6 11 -9 19 -10 28 -1 10 8 17 7 25 -1 17
-17 58 8 85 51 l22 36 3 -27 c2 -15 -2 -36 -8 -47z m640 -102 c0 -31 -7 -78
-15 -105 -19 -63 -19 -74 2 -74 26 0 140 121 148 158 3 18 10 32 15 32 15 0
-11 -72 -57 -161 -63 -122 -65 -148 -15 -240 41 -75 60 -138 47 -159 -4 -7
-14 9 -24 38 -23 67 -46 100 -76 108 -35 9 -54 -1 -66 -33 -15 -41 -47 -71
-88 -84 -20 -6 -61 -24 -92 -40 -69 -35 -108 -40 -58 -6 44 29 51 57 14 57
-20 0 -26 4 -21 15 3 8 -2 19 -12 24 -9 6 -13 11 -8 11 5 0 1 9 -9 20 -22 25
-81 27 -114 3 -18 -12 -23 -13 -19 -2 2 8 23 24 46 35 23 12 57 35 75 51 18
16 61 39 95 51 51 19 62 27 62 46 0 50 -75 96 -157 96 -35 0 -44 3 -33 10 8 5
42 10 75 10 54 -1 66 -5 115 -40 49 -36 56 -38 71 -24 17 15 62 162 74 243 10
59 25 34 25 -40z m-1455 -250 c34 -52 106 -88 134 -67 79 57 111 77 143 87 64
21 65 0 2 -29 -73 -34 -113 -73 -98 -98 6 -9 35 -21 65 -27 78 -16 98 -30 125
-90 14 -30 39 -66 56 -80 40 -34 30 -42 -21 -16 -50 26 -51 26 -51 0 0 -12 -8
-23 -20 -26 -11 -3 -20 -9 -20 -14 0 -5 -7 -9 -15 -9 -8 0 -22 -11 -31 -25
-19 -29 -8 -74 28 -112 17 -19 19 -23 6 -23 -9 0 -34 21 -55 46 -30 35 -50 48
-84 55 -64 15 -86 40 -103 121 -8 37 -37 52 -71 36 -24 -11 -85 -90 -85 -110
0 -5 -4 -6 -10 -3 -22 13 -9 61 30 110 23 29 40 61 40 76 0 16 -19 51 -49 90
-31 41 -55 85 -66 122 -23 79 -13 82 15 5 23 -64 66 -118 94 -118 21 0 21 46
1 120 -16 59 -20 142 -7 154 4 4 10 -24 14 -64 4 -53 13 -81 33 -111z m1197
62 c29 -11 79 -61 73 -72 -3 -4 -31 -15 -62 -24 -38 -11 -68 -28 -88 -50 -17
-18 -42 -36 -56 -40 -33 -10 -79 -55 -79 -77 0 -22 9 -23 46 -3 36 19 94 20
94 2 0 -32 26 -67 49 -67 23 0 23 -1 7 -19 -10 -11 -31 -25 -47 -31 -37 -16
-33 -34 9 -38 20 -2 54 9 99 31 37 19 80 37 94 41 38 8 79 45 95 83 26 62 67
38 105 -60 21 -54 21 -58 5 -76 -10 -11 -30 -43 -45 -73 -15 -29 -35 -55 -45
-56 -9 -2 -52 13 -94 33 -97 46 -214 59 -272 28 -59 -31 -46 -47 45 -56 71 -7
165 -39 165 -57 0 -3 -37 -6 -82 -6 -92 0 -188 -26 -188 -50 0 -22 13 -24 176
-33 82 -4 162 -13 178 -20 l29 -11 -5 -79 c-4 -76 -6 -80 -43 -112 -45 -40
-98 -77 -115 -81 -9 -2 -13 14 -14 51 -1 51 -4 56 -50 98 -44 39 -50 49 -54
93 -2 28 -7 50 -11 50 -27 -1 -51 -51 -51 -106 0 -31 -2 -34 -30 -34 -20 0
-30 -5 -30 -15 0 -11 -17 -2 -52 25 -37 30 -54 38 -62 30 -8 -8 -4 -23 14 -53
15 -26 27 -67 31 -107 7 -65 23 -89 85 -126 28 -17 8 -33 -73 -55 -37 -11 -69
-24 -71 -29 -2 -6 -41 -10 -88 -10 -78 0 -84 2 -84 20 0 29 25 86 65 146 34
51 43 78 28 87 -14 8 -146 -107 -162 -140 -16 -33 -38 -47 -27 -17 12 32 29
153 23 168 -10 27 -36 18 -51 -16 -40 -93 -74 -187 -80 -218 -7 -41 -38 -64
-101 -75 -22 -4 -64 -16 -93 -27 -36 -13 -57 -17 -65 -10 -7 5 -41 18 -77 27
-112 31 -158 65 -86 65 41 0 78 28 100 75 14 28 23 35 45 35 32 0 56 22 47 45
-4 10 -19 15 -50 15 -45 0 -76 18 -76 45 0 8 -7 18 -15 22 -12 7 -13 14 -3 39
12 32 6 64 -12 64 -5 0 -22 -13 -37 -30 -15 -17 -36 -30 -50 -30 -69 0 -126
-57 -123 -123 3 -58 3 -60 -29 -41 -43 25 -104 101 -94 117 4 6 10 39 13 72
l5 60 55 -1 c198 -5 240 -3 280 9 69 20 65 44 -7 52 -74 8 -163 33 -163 45 0
14 13 19 91 31 88 13 142 34 136 51 -3 10 -39 13 -140 13 -134 0 -137 0 -163
27 -25 24 -26 29 -15 57 7 16 19 32 26 35 7 2 29 29 49 59 54 82 81 86 92 15
10 -57 55 -106 106 -114 29 -5 50 -18 81 -51 45 -48 79 -62 102 -43 13 11 11
17 -15 47 -39 44 -41 90 -5 99 14 3 25 10 25 14 0 5 9 12 20 15 11 3 20 13 20
21 0 12 5 12 31 -2 25 -12 37 -14 55 -5 32 14 30 26 -9 50 -18 11 -39 33 -46
48 -38 82 -49 99 -78 115 -17 10 -54 21 -82 25 -28 3 -51 9 -51 13 0 13 46 49
98 75 52 26 53 26 97 9 37 -14 63 -16 144 -10 l98 7 7 -32 c10 -49 -11 -107
-70 -195 -30 -45 -54 -87 -54 -94 0 -16 46 -5 80 19 26 18 101 115 134 173 26
44 34 15 10 -39 -43 -99 -63 -156 -58 -164 10 -16 42 -9 72 16 16 13 42 52 57
87 24 52 30 80 33 161 4 89 6 98 26 102 11 3 56 12 99 20 42 8 85 19 95 24 21
13 103 14 134 2z m372 -448 c-54 -104 -40 -128 59 -101 52 13 81 7 133 -29 24
-16 59 -29 89 -33 l50 -6 -30 -13 c-16 -7 -40 -17 -53 -22 -19 -7 -21 -12 -13
-28 8 -14 7 -22 -5 -32 -8 -7 -12 -19 -8 -28 3 -9 10 -30 14 -48 l7 -31 -29
18 c-21 12 -42 16 -72 13 -63 -8 -107 11 -149 62 -21 25 -42 45 -48 45 -5 0
-21 -11 -34 -25 -19 -18 -25 -35 -25 -65 0 -35 -22 -100 -35 -100 -2 0 -1 31
2 69 3 38 3 80 -1 94 -9 37 -69 57 -170 57 -46 0 -112 3 -146 7 l-64 6 45 14
c24 7 82 13 129 14 107 0 124 8 91 43 -29 31 -85 52 -171 63 l-65 9 45 13 c64
18 151 7 230 -31 36 -17 81 -32 100 -32 33 -1 36 3 64 57 28 57 82 124 91 115
3 -2 -11 -36 -31 -75z m-1704 -33 c-33 -46 -25 -79 26 -110 38 -24 93 -29 199
-18 41 5 62 4 50 -1 -11 -5 -45 -12 -75 -15 -30 -4 -67 -9 -83 -12 -33 -7 -54
-39 -37 -59 16 -20 96 -44 153 -47 26 -1 47 -5 47 -9 0 -14 -113 -22 -227 -15
-134 9 -143 5 -144 -63 0 -50 -12 -90 -21 -75 -3 5 -9 41 -13 79 -3 39 -10 74
-14 78 -4 4 -29 3 -54 -4 -60 -15 -125 -5 -166 25 -25 19 -40 23 -75 19 -56
-7 -70 13 -14 20 51 7 77 29 59 51 -10 12 -9 16 6 24 10 6 15 14 11 18 -5 4
-3 13 3 21 16 19 -5 41 -43 45 l-30 3 19 24 c19 23 22 24 65 12 35 -10 51 -10
67 -1 31 16 81 -2 138 -51 25 -22 50 -38 57 -36 6 1 31 33 55 70 24 36 48 64
53 61 4 -3 -1 -18 -12 -34z m1294 -354 c43 -40 46 -46 46 -95 0 -81 41 -82
136 -5 38 31 59 43 66 36 15 -15 -36 -75 -104 -122 -31 -22 -60 -50 -63 -61
-10 -30 49 -144 101 -196 24 -24 44 -45 44 -48 0 -2 -14 1 -31 7 -20 7 -47 33
-77 75 -51 70 -75 78 -80 26 -3 -33 24 -95 66 -150 13 -18 22 -33 19 -33 -37
0 -104 96 -137 195 -12 35 -27 65 -34 68 -7 3 -37 -3 -67 -14 -57 -19 -134
-25 -143 -10 -3 5 11 12 32 16 20 3 56 15 80 27 55 26 57 55 5 83 -40 22 -63
65 -63 117 0 18 -12 53 -25 77 l-25 44 44 -37 c49 -40 61 -43 74 -20 5 9 12
15 15 15 38 -5 47 0 47 28 0 16 3 44 7 62 l7 34 7 -38 c4 -29 18 -50 53 -81z
m-1058 -40 c-17 -33 -17 -34 6 -59 12 -13 30 -35 39 -48 12 -18 24 -22 63 -21
51 0 52 -14 2 -20 -22 -2 -35 -12 -49 -38 -29 -53 -43 -64 -88 -66 -108 -5
-51 -73 89 -105 28 -7 52 -17 52 -22 0 -12 -129 -2 -194 14 -40 10 -50 8 -98
-13 -30 -14 -83 -46 -118 -73 -61 -44 -148 -90 -157 -82 -2 2 16 17 39 32 69
45 138 106 138 121 0 23 -50 16 -120 -17 -75 -36 -171 -71 -178 -65 -2 3 20
17 50 31 29 15 78 46 108 69 30 24 79 56 107 72 29 16 55 35 58 43 6 15 -8 41
-68 119 -22 29 -37 55 -34 58 3 3 32 -22 64 -55 43 -45 66 -61 86 -61 29 0 29
1 31 72 2 60 24 85 91 97 33 6 57 18 70 34 27 33 33 24 11 -17z m511 -53 c-16
-59 -29 -185 -19 -195 15 -15 29 -3 52 42 19 38 106 130 122 130 5 0 -11 -27
-33 -61 -31 -44 -43 -74 -47 -109 -4 -46 -4 -47 28 -54 18 -3 71 -6 118 -6 47
0 83 -3 79 -6 -3 -3 -39 -10 -81 -14 -106 -12 -145 -44 -99 -81 41 -35 45 -84
12 -166 -10 -25 -11 -42 -2 -75 l11 -43 -18 25 c-50 68 -48 66 -69 53 -16 -10
-20 -9 -25 3 -4 11 -10 13 -23 6 -11 -7 -25 -6 -41 1 -20 9 -26 8 -34 -7 -6
-10 -22 -31 -37 -48 l-26 -29 -1 63 c0 35 -4 80 -8 100 -7 32 -5 43 18 72 33
44 33 54 -1 67 -26 10 -155 -1 -218 -18 -14 -4 -17 -2 -10 6 6 6 58 22 115 37
112 28 150 53 150 98 0 13 11 48 24 77 14 30 30 75 37 102 6 26 16 47 21 47 5
0 7 -8 5 -17z"/>
<path d="M1952 3298 c-18 -18 -15 -28 7 -28 26 0 34 15 18 29 -10 8 -17 7 -25
-1z"/>
<path d="M2050 3295 c-10 -12 -9 -16 5 -21 19 -8 40 9 31 25 -10 15 -21 14
-36 -4z"/>
<path d="M2530 2914 c0 -9 7 -14 17 -12 25 5 28 28 4 28 -12 0 -21 -6 -21 -16z"/>
<path d="M2607 2844 c-14 -14 -7 -25 13 -22 12 2 21 8 21 13 0 12 -24 18 -34
9z"/>
<path d="M1604 2829 c-10 -17 13 -36 27 -22 12 12 4 33 -11 33 -5 0 -12 -5
-16 -11z"/>
<path d="M1505 2720 c-3 -6 1 -13 10 -16 19 -8 30 0 20 15 -8 14 -22 14 -30 1z"/>
<path d="M3047 2494 c-8 -8 1 -24 14 -24 5 0 9 7 9 15 0 15 -12 20 -23 9z"/>
<path d="M3012 2388 c5 -15 28 -18 29 -3 0 6 -7 12 -17 13 -10 3 -15 -1 -12
-10z"/>
<path d="M905 2529 c-4 -6 -1 -15 6 -20 21 -13 31 -11 27 8 -4 20 -24 28 -33
12z"/>
<path d="M882 2428 c3 -7 13 -15 22 -16 12 -3 17 1 14 10 -3 7 -13 15 -22 16
-12 3 -17 -1 -14 -10z"/>
<path d="M2432 2223 c5 -25 28 -28 28 -4 0 12 -6 21 -16 21 -9 0 -14 -7 -12
-17z"/>
<path d="M2340 2185 c0 -10 7 -15 18 -13 21 4 19 22 -2 26 -10 2 -16 -3 -16
-13z"/>
<path d="M1350 2144 c0 -9 7 -14 17 -12 25 5 28 28 4 28 -12 0 -21 -6 -21 -16z"/>
<path d="M1420 2075 c0 -8 7 -15 15 -15 8 0 15 7 15 15 0 8 -7 15 -15 15 -8 0
-15 -7 -15 -15z"/>
<path d="M1897 1744 c-14 -15 -6 -34 14 -34 14 0 19 5 17 17 -3 18 -20 27 -31
17z"/>
<path d="M1995 1740 c-4 -7 -3 -16 3 -22 14 -14 45 -2 40 15 -6 16 -34 21 -43
7z"/>
</g>
</svg>
