<?xml version="1.0" encoding="UTF-8"?>
<svg xmlns="http://www.w3.org/2000/svg" xmlns:xlink="http://www.w3.org/1999/xlink" width="200px" height="200px" viewBox="0 0 200 200" version="1.1">
<g id="surface1">
<path style=" stroke:none;fill-rule:nonzero;fill:rgb(0%,0%,0%);fill-opacity:1;" d="M 118.042969 12.867188 C 120.261719 13.5 121.886719 15.332031 123.554688 16.835938 C 123.914062 17.125 124.273438 17.410156 124.648438 17.703125 C 129.542969 21.683594 133.050781 28.875 134.195312 35.0625 C 134.664062 40.03125 134.371094 44.542969 132.777344 49.296875 C 131.871094 52.09375 132.550781 54.261719 133.832031 56.828125 C 138.671875 66.882812 136.605469 76.898438 133.058594 87.0625 C 130.804688 92.980469 126.140625 97.207031 120.660156 100.207031 C 120.394531 100.351562 120.125 100.5 119.851562 100.648438 C 116.332031 102.566406 112.78125 104.378906 109.089844 105.953125 C 109.621094 106.039062 110.148438 106.125 110.695312 106.214844 C 117.820312 107.4375 125.113281 110.078125 129.753906 115.964844 C 133.328125 121.691406 134.320312 129.132812 132.832031 135.699219 C 131.628906 139.203125 129.058594 142 126.445312 144.558594 C 126.171875 144.828125 125.902344 145.101562 125.621094 145.378906 C 125.949219 145.664062 125.949219 145.664062 126.285156 145.953125 C 129.316406 148.734375 130.839844 151.933594 131.089844 156.035156 C 131.246094 162.425781 129.941406 165.988281 125.621094 170.84375 C 125.066406 171.523438 124.511719 172.207031 123.96875 172.894531 C 124.214844 173.082031 124.464844 173.273438 124.722656 173.464844 C 125.21875 173.84375 125.21875 173.84375 125.722656 174.230469 C 126.210938 174.601562 126.210938 174.601562 126.710938 174.980469 C 129.230469 177.019531 129.230469 177.019531 129.574219 178.25 C 129.570312 179.082031 129.570312 179.082031 129.339844 180.699219 C 127.128906 182.761719 123.554688 182.40625 120.6875 182.390625 C 120.34375 182.394531 120 182.394531 119.644531 182.398438 C 118.007812 182.398438 116.417969 182.351562 114.792969 182.117188 C 110.492188 181.550781 108.214844 182.539062 104.625 184.652344 C 99.371094 187.722656 93.679688 188.1875 87.707031 188.191406 C 87.277344 188.195312 87.277344 188.195312 86.839844 188.195312 C 79.777344 188.183594 69.808594 187.890625 63.636719 183.984375 C 62.976562 182.671875 63.015625 181.300781 63.222656 179.875 C 64.351562 178.542969 65.664062 178.425781 67.355469 178.234375 C 66.125 177.582031 64.914062 177.15625 63.585938 176.746094 C 59.941406 175.453125 56.707031 172.910156 54.863281 169.488281 C 54.4375 167.996094 54.40625 166.554688 54.417969 165.015625 C 54.417969 164.707031 54.421875 164.394531 54.421875 164.074219 C 54.5 160.402344 55.253906 157.15625 57.851562 154.414062 C 59.28125 153.339844 59.734375 153.183594 61.570312 153.183594 C 61.570312 152.777344 61.570312 152.371094 61.570312 151.949219 C 61.261719 151.8125 60.949219 151.671875 60.628906 151.527344 C 56.609375 149.632812 52.253906 147.242188 50.316406 143.046875 C 50.1875 142.671875 50.058594 142.300781 49.921875 141.914062 C 49.789062 141.542969 49.65625 141.171875 49.515625 140.785156 C 47.699219 134.675781 48.332031 127.40625 50.945312 121.617188 C 52.4375 118.957031 54.476562 116.742188 56.613281 114.578125 C 56.984375 114.191406 56.984375 114.191406 57.367188 113.796875 C 61.527344 109.835938 67.9375 106.894531 73.734375 106.738281 C 74.082031 106.75 74.433594 106.761719 74.792969 106.777344 C 74.753906 105.421875 74.554688 104.308594 73.96875 103.082031 C 72.957031 102.320312 71.917969 101.832031 70.773438 101.292969 C 63.59375 97.695312 57.082031 91.652344 54.121094 84.183594 C 52.949219 80.609375 52.734375 77.453125 52.738281 73.691406 C 52.738281 73.417969 52.738281 73.140625 52.738281 72.859375 C 52.761719 65.835938 54.03125 60.210938 58.824219 54.878906 C 59.503906 54.210938 59.503906 54.210938 60.742188 53.386719 C 60.371094 52.964844 60.371094 52.964844 59.988281 52.53125 C 55.875 47.050781 56.269531 38.621094 57.175781 32.191406 C 57.582031 30.125 58.261719 28.214844 59.089844 26.285156 C 59.226562 25.957031 59.367188 25.628906 59.507812 25.289062 C 63.308594 16.382812 63.308594 16.382812 66.527344 14.785156 C 69.578125 14.59375 69.578125 14.59375 70.476562 15.269531 C 71.265625 16.253906 71.34375 17.011719 71.511719 18.253906 C 71.578125 18.695312 71.644531 19.136719 71.710938 19.59375 C 71.773438 20.054688 71.835938 20.519531 71.902344 20.996094 C 72.710938 27.03125 72.710938 27.03125 75.566406 32.316406 C 75.855469 32.691406 76.144531 33.070312 76.441406 33.460938 C 77.121094 34.304688 77.804688 35.136719 78.511719 35.960938 C 79.339844 36.960938 79.339844 36.960938 79.339844 37.78125 C 79.613281 37.78125 79.882812 37.78125 80.164062 37.78125 C 80.199219 37.476562 80.234375 37.171875 80.269531 36.859375 C 80.664062 35.421875 80.984375 34.921875 82.230469 34.085938 C 83.523438 33.828125 84.660156 33.816406 85.949219 34.085938 C 87.136719 35.011719 87.136719 35.011719 88.015625 36.140625 C 88.265625 36.453125 88.511719 36.765625 88.765625 37.089844 C 88.925781 37.316406 89.089844 37.546875 89.257812 37.78125 C 89.445312 37.511719 89.632812 37.242188 89.824219 36.960938 C 91.253906 35.878906 92.25 35.886719 94.015625 35.945312 C 95.648438 36.253906 96.390625 37.011719 97.519531 38.191406 C 97.929688 37.921875 98.339844 37.652344 98.761719 37.371094 C 100.710938 37.054688 102.148438 37.199219 103.898438 38.117188 C 104.957031 39.015625 104.957031 39.015625 105.785156 40.246094 C 106.792969 40.394531 106.792969 40.394531 107.902344 40.324219 C 108.46875 40.308594 108.46875 40.308594 109.042969 40.289062 C 109.332031 40.277344 109.621094 40.261719 109.917969 40.246094 C 112.546875 35.351562 114.757812 31.152344 114.164062 25.476562 C 113.96875 23.351562 113.941406 21.230469 113.921875 19.097656 C 113.910156 18.65625 113.898438 18.21875 113.882812 17.765625 C 113.878906 17.34375 113.878906 16.925781 113.875 16.492188 C 113.863281 15.925781 113.863281 15.925781 113.855469 15.347656 C 114.050781 14.375 114.050781 14.375 114.796875 13.644531 C 115.875 13.046875 116.804688 12.820312 118.042969 12.867188 Z M 119.835938 22.585938 C 119.84375 22.953125 119.84375 22.953125 119.855469 23.324219 C 120.042969 31.550781 119.5625 39.238281 113.636719 45.585938 C 112.398438 46.421875 111.402344 46.519531 109.917969 46.507812 C 109.394531 46.511719 109.394531 46.511719 108.859375 46.515625 C 107.78125 46.398438 107.152344 46.070312 106.199219 45.585938 C 105.292969 45.460938 105.292969 45.460938 104.363281 45.429688 C 102.605469 45.277344 101.6875 44.796875 100.414062 43.53125 C 100.183594 43.730469 99.953125 43.933594 99.71875 44.136719 C 98.597656 44.871094 97.992188 44.929688 96.667969 44.917969 C 96.136719 44.921875 96.136719 44.921875 95.59375 44.925781 C 94.460938 44.734375 94.097656 44.40625 93.386719 43.53125 C 92.277344 44.03125 92.277344 44.03125 91.324219 44.765625 C 87.214844 45.207031 87.214844 45.207031 85.484375 44.304688 C 84.8125 43.738281 84.8125 43.738281 83.882812 42.710938 C 83.773438 42.972656 83.664062 43.234375 83.550781 43.503906 C 83.40625 43.84375 83.261719 44.183594 83.109375 44.53125 C 82.964844 44.871094 82.820312 45.210938 82.671875 45.558594 C 82.230469 46.40625 82.230469 46.40625 81.40625 46.816406 C 79.703125 47.007812 78.84375 47.066406 77.453125 46.023438 C 76.4375 44.753906 75.539062 43.460938 74.65625 42.101562 C 73.910156 40.984375 73.117188 39.910156 72.3125 38.835938 C 71.761719 38.074219 71.210938 37.3125 70.660156 36.550781 C 70.429688 36.25 70.195312 35.949219 69.957031 35.640625 C 67.597656 32.273438 67.175781 28.199219 66.527344 24.230469 C 62.839844 28.613281 61.21875 35.894531 61.570312 41.476562 C 61.746094 42.761719 62.003906 44.015625 62.292969 45.277344 C 62.359375 45.597656 62.421875 45.914062 62.492188 46.242188 C 62.917969 48.167969 63.421875 49.5 64.875 50.925781 C 65.148438 50.925781 65.421875 50.925781 65.703125 50.925781 C 65.78125 52.078125 65.78125 52.078125 65.703125 53.386719 C 65.300781 53.8125 64.886719 54.21875 64.460938 54.621094 C 59.917969 60.996094 57.082031 67.621094 57.851562 75.566406 C 58.554688 79.648438 59.851562 82.957031 62.398438 86.242188 C 62.660156 86.582031 62.921875 86.921875 63.191406 87.273438 C 66.816406 91.597656 71.71875 94.625 76.566406 97.433594 C 78.238281 98.507812 79.183594 99.136719 79.648438 101.117188 C 79.761719 102.796875 79.796875 104.453125 79.777344 106.132812 C 79.777344 106.433594 79.773438 106.734375 79.773438 107.042969 C 79.765625 107.777344 79.761719 108.507812 79.753906 109.242188 C 78.949219 109.296875 78.949219 109.296875 78.132812 109.355469 C 75.976562 109.59375 74.164062 110.257812 72.183594 111.113281 C 71.84375 111.257812 71.503906 111.402344 71.152344 111.554688 C 68.277344 112.816406 65.742188 114.34375 63.222656 116.222656 C 62.90625 116.4375 62.589844 116.65625 62.265625 116.882812 C 62.035156 117.070312 61.808594 117.257812 61.570312 117.453125 C 61.570312 117.726562 61.570312 117.996094 61.570312 118.273438 C 61.296875 118.273438 61.023438 118.273438 60.742188 118.273438 C 60.742188 118.546875 60.742188 118.816406 60.742188 119.097656 C 60.472656 119.097656 60.199219 119.097656 59.917969 119.097656 C 56.308594 123.265625 53.738281 127.871094 53.972656 133.539062 C 54.476562 137.199219 55.445312 140.449219 58.371094 142.867188 C 62.261719 145.550781 65.535156 146.832031 70.246094 147.433594 C 68.792969 145.925781 67.261719 144.628906 65.574219 143.378906 C 58.613281 138.101562 58.613281 138.101562 57.4375 134.703125 C 57.289062 133.3125 57.304688 131.984375 57.4375 130.59375 C 59.332031 130.402344 60.433594 130.523438 61.957031 131.621094 C 62.375 131.960938 62.792969 132.300781 63.222656 132.648438 C 63.65625 131.359375 63.800781 130.21875 63.949219 128.867188 C 64.003906 128.363281 64.058594 127.859375 64.113281 127.339844 C 64.167969 126.8125 64.226562 126.289062 64.28125 125.746094 C 64.339844 125.222656 64.398438 124.699219 64.457031 124.160156 C 64.695312 121.914062 64.910156 119.71875 64.875 117.453125 C 65.53125 117.5 66.183594 117.554688 66.839844 117.609375 C 67.203125 117.636719 67.566406 117.664062 67.941406 117.695312 C 69.003906 117.863281 69.734375 118.15625 70.660156 118.6875 C 70.796875 118.007812 70.933594 117.332031 71.074219 116.632812 C 73.160156 116.78125 74.183594 117.882812 75.542969 119.328125 C 75.75 119.542969 75.957031 119.753906 76.171875 119.976562 C 76.679688 120.5 77.183594 121.03125 77.6875 121.5625 C 77.824219 121.289062 77.957031 121.019531 78.097656 120.738281 C 77.980469 120.441406 77.859375 120.144531 77.738281 119.839844 C 77.199219 118.5 77.027344 117.238281 76.859375 115.8125 C 79.101562 116.324219 80.070312 117.277344 81.300781 119.121094 C 81.472656 119.371094 81.644531 119.617188 81.824219 119.875 C 83.910156 122.9375 85.761719 126.148438 87.601562 129.363281 C 89.164062 127.925781 90.359375 126.289062 91.605469 124.589844 C 97.070312 117.253906 97.070312 117.253906 100.414062 114.988281 C 101.601562 114.863281 101.601562 114.863281 102.480469 114.988281 C 102.738281 117.058594 102.523438 118.007812 101.238281 119.6875 C 100.832031 120.179688 100.421875 120.667969 100 121.148438 C 102.257812 120.453125 103.691406 118.988281 105.375 117.414062 C 107.015625 115.953125 108.121094 115.515625 110.332031 115.402344 C 110.46875 115.808594 110.601562 116.214844 110.742188 116.632812 C 111.09375 116.429688 111.441406 116.226562 111.800781 116.015625 C 113.40625 115.320312 114.386719 115.140625 116.117188 115.402344 C 118.402344 118.429688 118.695312 122.816406 119.007812 126.488281 C 119.28125 126.21875 119.554688 125.945312 119.835938 125.667969 C 120.730469 125.496094 120.730469 125.496094 121.746094 125.410156 C 122.253906 125.363281 122.253906 125.363281 122.769531 125.316406 C 123.027344 125.296875 123.285156 125.277344 123.554688 125.257812 C 123.636719 130.085938 120.25 133.925781 117.074219 137.292969 C 115.710938 138.867188 114.496094 140.539062 113.273438 142.222656 C 113.039062 142.546875 112.800781 142.871094 112.558594 143.207031 C 111.566406 144.582031 110.648438 145.898438 109.917969 147.433594 C 116.304688 146.496094 121.199219 141.664062 124.949219 136.683594 C 127.195312 133.242188 128.09375 130.617188 127.6875 126.488281 C 127.011719 123.660156 125.945312 121.132812 124.378906 118.6875 C 124.109375 118.6875 123.835938 118.6875 123.554688 118.6875 C 123.460938 118.453125 123.371094 118.214844 123.277344 117.976562 C 120.796875 113.765625 113.769531 110.890625 109.347656 109.675781 C 108.714844 109.523438 108.078125 109.375 107.4375 109.242188 C 107.300781 109.375 107.164062 109.511719 107.023438 109.652344 C 106.398438 109.679688 105.769531 109.683594 105.140625 109.675781 C 104.796875 109.671875 104.457031 109.667969 104.105469 109.664062 C 103.839844 109.660156 103.578125 109.65625 103.304688 109.652344 C 102.671875 107.402344 102.648438 105.265625 103.226562 103.003906 C 104.664062 101.171875 106.617188 100.394531 108.675781 99.382812 C 117.449219 95.039062 125.015625 90.945312 128.511719 81.3125 C 130.941406 73.882812 132.269531 67.742188 128.585938 60.507812 C 125.484375 54.414062 126.296875 48.960938 128.203125 42.554688 C 129.375 36.921875 126.015625 30.898438 123.449219 26.019531 C 122.429688 24.65625 121.164062 23.648438 119.835938 22.585938 Z M 110.304688 123.5625 C 108.046875 125.277344 105.699219 126.789062 103.28125 128.265625 C 101.164062 129.558594 99.09375 130.90625 97.03125 132.285156 C 95.152344 133.535156 93.242188 134.742188 91.324219 135.933594 C 90.984375 136.160156 90.648438 136.382812 90.304688 136.613281 C 88.347656 137.648438 86.4375 137.617188 84.296875 137.167969 C 82.574219 136.136719 81.191406 134.855469 79.753906 133.46875 C 79.125 132.910156 78.5 132.355469 77.867188 131.800781 C 77.480469 131.453125 77.480469 131.453125 77.089844 131.09375 C 76.472656 130.511719 76.472656 130.511719 75.621094 130.59375 C 75.621094 130.324219 75.621094 130.054688 75.621094 129.773438 C 74.910156 129.03125 74.910156 129.03125 74.019531 128.285156 C 73.722656 128.027344 73.425781 127.765625 73.117188 127.5 C 72.371094 126.816406 72.371094 126.816406 71.488281 126.898438 C 71.488281 126.628906 71.488281 126.355469 71.488281 126.078125 C 70.75 125.425781 70.75 125.425781 69.835938 124.792969 C 69.375 124.460938 69.375 124.460938 68.90625 124.125 C 68.667969 123.957031 68.425781 123.789062 68.183594 123.613281 C 67.5625 126.257812 67.042969 128.914062 66.550781 131.585938 C 66.304688 132.910156 66.039062 134.21875 65.703125 135.523438 C 66.019531 135.742188 66.019531 135.742188 66.339844 135.960938 C 67.308594 136.632812 68.273438 137.308594 69.242188 137.988281 C 69.738281 138.328125 69.738281 138.328125 70.242188 138.675781 C 72.644531 140.371094 75.101562 142.296875 76.445312 144.96875 C 76.894531 149.269531 76.894531 149.269531 75.515625 151.207031 C 73.972656 152.21875 72.765625 152.414062 70.9375 152.402344 C 70.609375 152.398438 70.277344 152.398438 69.9375 152.398438 C 69.597656 152.394531 69.257812 152.390625 68.90625 152.386719 C 68.558594 152.386719 68.210938 152.382812 67.851562 152.382812 C 67 152.375 66.144531 152.371094 65.289062 152.363281 C 65.03125 153.796875 64.953125 155.039062 65.289062 156.46875 C 66.144531 157.257812 67.039062 157.671875 68.082031 158.1875 C 69.777344 159.128906 71.171875 160.308594 72.648438 161.550781 C 75.425781 163.851562 78.246094 165.808594 81.40625 167.554688 C 81.675781 167.730469 81.945312 167.902344 82.226562 168.078125 C 83.4375 168.515625 84.289062 168.246094 85.539062 167.96875 C 86.613281 167.484375 86.613281 167.484375 87.652344 166.859375 C 90.082031 165.492188 92.570312 164.28125 95.09375 163.089844 C 95.542969 162.875 95.996094 162.660156 96.460938 162.441406 C 99.023438 161.226562 101.589844 160.023438 104.15625 158.828125 C 106.488281 157.746094 108.800781 156.632812 111.105469 155.492188 C 111.382812 155.355469 111.660156 155.21875 111.949219 155.078125 C 113.113281 154.496094 114.203125 153.902344 115.289062 153.183594 C 115.289062 152.777344 115.289062 152.371094 115.289062 151.949219 C 115.058594 151.980469 114.828125 152.011719 114.589844 152.039062 C 106.324219 152.992188 106.324219 152.992188 104.132812 151.539062 C 103.65625 149.015625 103.753906 146.472656 105.0625 144.226562 C 105.5625 143.503906 106.082031 142.792969 106.613281 142.09375 C 107 141.566406 107.390625 141.039062 107.777344 140.507812 C 111.074219 136.074219 111.074219 136.074219 112.546875 134.4375 C 114.007812 132.828125 114.007812 132.828125 114.585938 130.789062 C 114.507812 129.589844 114.3125 128.484375 114.050781 127.308594 C 113.945312 126.824219 113.84375 126.335938 113.734375 125.835938 C 113.445312 124.542969 113.136719 123.257812 112.808594 121.972656 C 111.929688 121.972656 110.945312 123.066406 110.304688 123.5625 Z M 120.246094 149.074219 C 119.628906 150.925781 119.828125 152.746094 119.859375 154.683594 C 119.816406 156.941406 119.816406 156.941406 119.421875 157.699219 C 118.414062 158.085938 118.414062 158.085938 116.941406 158.523438 C 111.152344 160.933594 111.152344 160.933594 107.128906 165.402344 C 107.011719 165.746094 106.894531 166.089844 106.773438 166.445312 C 105.097656 169.679688 101.53125 171.300781 98.371094 172.816406 C 97.726562 173.132812 97.726562 173.132812 97.070312 173.453125 C 90.019531 176.832031 82.820312 179.683594 75.207031 181.519531 C 75.207031 181.65625 75.207031 181.789062 75.207031 181.929688 C 88.769531 184.941406 99.699219 181.628906 111.136719 174.441406 C 116.476562 170.964844 123.945312 165.730469 125.621094 159.34375 C 125.777344 155.976562 124.558594 153.449219 122.726562 150.71875 C 122.453125 150.71875 122.183594 150.71875 121.902344 150.71875 C 121.902344 150.449219 121.902344 150.175781 121.902344 149.898438 C 121.628906 149.898438 121.355469 149.898438 121.074219 149.898438 C 121.074219 149.625 121.074219 149.355469 121.074219 149.074219 C 120.800781 149.074219 120.527344 149.074219 120.246094 149.074219 Z M 61.15625 156.058594 C 59.167969 159.351562 58.304688 162.027344 58.675781 165.914062 C 59.742188 168.714844 62.597656 170.4375 65.207031 171.699219 C 66.695312 172.3125 68.207031 172.625 69.78125 172.921875 C 70.121094 172.988281 70.457031 173.054688 70.800781 173.121094 C 71.855469 173.324219 72.910156 173.519531 73.96875 173.714844 C 74.316406 173.785156 74.664062 173.851562 75.019531 173.921875 C 76.027344 174.117188 77.039062 174.304688 78.046875 174.488281 C 78.507812 174.574219 78.507812 174.574219 78.976562 174.667969 C 80.734375 174.96875 81.882812 174.976562 83.472656 174.128906 C 82.242188 173.5 80.992188 172.949219 79.726562 172.40625 C 77.59375 171.453125 75.667969 170.300781 73.722656 169.015625 C 72.859375 168.460938 72.003906 167.992188 71.074219 167.554688 C 71.074219 167.285156 71.074219 167.015625 71.074219 166.734375 C 70.417969 166.136719 69.730469 165.566406 69.035156 165.015625 C 68.621094 164.6875 68.210938 164.359375 67.785156 164.023438 C 67.371094 163.699219 66.957031 163.375 66.527344 163.039062 C 66.164062 162.746094 65.800781 162.457031 65.429688 162.15625 C 63.878906 160.730469 63.878906 160.730469 61.984375 160.164062 C 61.847656 158.808594 61.710938 157.453125 61.570312 156.058594 C 61.433594 156.058594 61.296875 156.058594 61.15625 156.058594 Z M 119.421875 175.769531 C 118.800781 176.171875 118.179688 176.574219 117.5625 176.976562 C 117.042969 177.3125 117.042969 177.3125 116.515625 177.65625 C 116.246094 177.847656 115.980469 178.039062 115.703125 178.234375 C 115.703125 178.371094 115.703125 178.503906 115.703125 178.644531 C 118.15625 178.644531 120.613281 178.644531 123.140625 178.644531 C 121.410156 176.828125 121.410156 176.828125 119.421875 175.769531 Z M 119.421875 175.769531 "/>
<path style=" stroke:none;fill-rule:nonzero;fill:rgb(0%,0%,0%);fill-opacity:1;" d="M 99.199219 48.613281 C 100.414062 49.28125 100.414062 49.28125 101.238281 50.101562 C 101.511719 49.832031 101.785156 49.5625 102.066406 49.28125 C 103.074219 49.128906 103.074219 49.128906 104.132812 49.28125 C 104.882812 50.101562 104.882812 50.101562 105.371094 50.925781 C 105.589844 50.617188 105.589844 50.617188 105.8125 50.308594 C 106.613281 49.691406 106.613281 49.691406 108.03125 49.488281 C 109.503906 49.691406 109.503906 49.691406 110.460938 50.640625 C 110.691406 51.007812 110.921875 51.371094 111.15625 51.746094 C 111.429688 52.152344 111.703125 52.558594 111.984375 52.976562 C 112.066406 52.714844 112.152344 52.453125 112.238281 52.183594 C 112.351562 51.84375 112.460938 51.503906 112.578125 51.15625 C 112.6875 50.816406 112.796875 50.476562 112.910156 50.128906 C 113.222656 49.28125 113.222656 49.28125 113.636719 48.871094 C 115.300781 48.761719 115.933594 48.75 117.355469 49.691406 C 117.746094 50.851562 117.746094 50.851562 118.050781 52.207031 C 118.15625 52.65625 118.261719 53.105469 118.367188 53.570312 C 118.441406 53.917969 118.519531 54.261719 118.59375 54.621094 C 118.648438 54.246094 118.703125 53.867188 118.761719 53.480469 C 118.835938 52.992188 118.90625 52.503906 118.984375 52.003906 C 119.054688 51.515625 119.125 51.03125 119.199219 50.53125 C 119.421875 49.28125 119.421875 49.28125 119.835938 48.460938 C 120.652344 48.460938 121.472656 48.460938 122.3125 48.460938 C 122.308594 48.796875 122.304688 49.132812 122.300781 49.480469 C 122.296875 49.921875 122.292969 50.367188 122.289062 50.820312 C 122.285156 51.257812 122.277344 51.699219 122.273438 52.148438 C 122.308594 53.195312 122.417969 54.035156 122.726562 55.03125 C 123 55.03125 123.273438 55.03125 123.554688 55.03125 C 123.554688 55.300781 123.554688 55.574219 123.554688 55.851562 C 124.371094 56.125 125.191406 56.394531 126.03125 56.671875 C 126.03125 57.488281 126.03125 58.300781 126.03125 59.136719 C 123.757812 60.605469 121.632812 60.652344 119.007812 60.371094 C 117.359375 59.824219 116.753906 59.570312 115.960938 58.035156 C 115.875 57.71875 115.789062 57.40625 115.703125 57.085938 C 115.519531 57.292969 115.339844 57.5 115.152344 57.714844 C 113.863281 59.023438 112.949219 59.871094 111.085938 60.164062 C 109.851562 60.164062 108.664062 60.128906 107.4375 59.957031 C 107.023438 59.546875 107.023438 59.546875 107 58.164062 C 107.007812 57.671875 107.015625 57.179688 107.023438 56.671875 C 107.023438 56.265625 107.023438 55.859375 107.023438 55.441406 C 106.636719 55.464844 106.636719 55.464844 106.242188 55.484375 C 105.902344 55.496094 105.566406 55.507812 105.21875 55.519531 C 104.882812 55.53125 104.546875 55.546875 104.199219 55.5625 C 103.90625 55.523438 103.609375 55.480469 103.304688 55.441406 C 103.03125 55.035156 102.761719 54.628906 102.480469 54.210938 C 102.070312 54.480469 101.660156 54.75 101.238281 55.03125 C 99.742188 55.109375 99.742188 55.109375 98.347656 55.03125 C 97.933594 54.621094 97.933594 54.621094 97.90625 53.15625 C 97.917969 52.691406 97.925781 52.226562 97.933594 51.746094 C 96.902344 51.234375 96.359375 51.355469 95.222656 51.488281 C 94.722656 51.542969 94.722656 51.542969 94.214844 51.601562 C 93.390625 51.664062 93.390625 51.664062 92.976562 52.15625 C 92.148438 52.171875 91.320312 52.171875 90.496094 52.15625 C 90.496094 51.207031 90.496094 50.257812 90.496094 49.28125 C 93.109375 47.59375 96.320312 47.441406 99.199219 48.613281 Z M 99.199219 48.613281 "/>
<path style=" stroke:none;fill-rule:nonzero;fill:rgb(0%,0%,0%);fill-opacity:1;" d="M 85.125 137.988281 C 85.8125 137.96875 86.5 137.972656 87.191406 137.988281 C 88.339844 139.132812 87.726562 142.269531 87.734375 143.867188 C 87.734375 144.144531 87.734375 144.417969 87.738281 144.707031 C 87.746094 149.578125 87.378906 154.375 86.828125 159.214844 C 86.792969 159.539062 86.757812 159.863281 86.71875 160.195312 C 86.0625 166.003906 86.0625 166.003906 85.125 167.554688 C 84.296875 167.574219 83.472656 167.574219 82.644531 167.554688 C 81.59375 166.515625 82.078125 163.453125 82.066406 162.003906 C 82.117188 157.363281 82.65625 152.78125 83.210938 148.175781 C 83.257812 147.792969 83.304688 147.40625 83.351562 147.007812 C 83.484375 145.894531 83.625 144.78125 83.765625 143.667969 C 83.804688 143.332031 83.847656 142.996094 83.890625 142.652344 C 84.109375 140.980469 84.390625 139.53125 85.125 137.988281 Z M 85.125 137.988281 "/>
<path style=" stroke:none;fill-rule:nonzero;fill:rgb(0%,0%,0%);fill-opacity:1;" d="M 81.40625 75.566406 C 82.4375 76.15625 82.4375 76.15625 83.058594 77.207031 C 83.328125 78.882812 83.371094 80.296875 82.582031 81.828125 C 81.511719 82.835938 80.792969 82.765625 79.339844 82.75 C 78.6875 82.757812 78.6875 82.757812 78.023438 82.765625 C 76.859375 82.546875 76.859375 82.546875 76.097656 81.816406 C 75.359375 80.402344 75.320312 79.167969 75.621094 77.617188 C 77.203125 75.574219 78.878906 75.226562 81.40625 75.566406 Z M 81.40625 75.566406 "/>
<path style=" stroke:none;fill-rule:nonzero;fill:rgb(0%,0%,0%);fill-opacity:1;" d="M 104.546875 76.796875 C 105.578125 77.386719 105.578125 77.386719 106.199219 78.4375 C 106.445312 80.007812 106.636719 81.507812 105.695312 82.855469 C 104.71875 83.53125 104.074219 83.53125 102.890625 83.523438 C 102.535156 83.523438 102.175781 83.527344 101.808594 83.53125 C 100.640625 83.335938 100.269531 83.085938 99.585938 82.136719 C 99.414062 80.285156 99.535156 78.859375 100.414062 77.207031 C 101.738281 76.546875 103.105469 76.605469 104.546875 76.796875 Z M 104.546875 76.796875 "/>
</g>
</svg>
